<?xml version="1.0" encoding="utf-8" standalone="no"?>
<!DOCTYPE svg PUBLIC "-//W3C//DTD SVG 1.1//EN"
  "http://www.w3.org/Graphics/SVG/1.1/DTD/svg11.dtd">
<svg xmlns:xlink="http://www.w3.org/1999/xlink" width="117.855pt" height="173.377813pt" viewBox="0 0 117.855 173.377813" xmlns="http://www.w3.org/2000/svg" version="1.1">
 <metadata>
  <rdf:RDF xmlns:dc="http://purl.org/dc/elements/1.1/" xmlns:cc="http://creativecommons.org/ns#" xmlns:rdf="http://www.w3.org/1999/02/22-rdf-syntax-ns#">
   <cc:Work>
    <dc:type rdf:resource="http://purl.org/dc/dcmitype/StillImage"/>
    <dc:date>2025-10-29T19:24:35.352134</dc:date>
    <dc:format>image/svg+xml</dc:format>
    <dc:creator>
     <cc:Agent>
      <dc:title>Matplotlib v3.10.3, https://matplotlib.org/</dc:title>
     </cc:Agent>
    </dc:creator>
   </cc:Work>
  </rdf:RDF>
 </metadata>
 <defs>
  <style type="text/css">*{stroke-linejoin: round; stroke-linecap: butt}</style>
 </defs>
 <g id="figure_1">
  <g id="patch_1">
   <path d="M 0 173.377813 
L 117.855 173.377813 
L 117.855 0 
L 0 0 
L 0 173.377813 
z
" style="fill: none"/>
  </g>
  <g id="axes_1">
   <g id="patch_2">
    <path d="M 11.17875 50.797241 
L 40.24125 50.797241 
L 40.24125 31.68 
L 11.17875 31.68 
L 11.17875 50.797241 
z
" style="fill: none"/>
   </g>
   <g id="matplotlib.axis_1"/>
   <g id="matplotlib.axis_2"/>
   <g id="line2d_1">
    <path d="M 11.17875 36.757255 
L 11.469375 35.491263 
L 11.571094 35.502224 
L 11.585625 35.519841 
L 11.789062 35.993708 
L 12.326719 37.206052 
L 12.791719 37.685926 
L 13.50375 38.072653 
L 14.927812 38.547857 
L 16.787813 38.935291 
L 18.633281 39.122969 
L 18.85125 38.862586 
L 20.3625 36.50514 
L 20.842031 36.345766 
L 21.452344 36.394212 
L 25.085156 36.994654 
L 25.811719 37.139887 
L 25.913438 37.91826 
L 26.974219 49.417327 
L 27.206719 49.916684 
L 27.366563 49.868857 
L 27.628125 49.443271 
L 29.386406 46.056288 
L 30.112969 45.27761 
L 30.825 44.828289 
L 31.609687 44.593 
L 32.626875 44.533602 
L 33.193594 44.444807 
L 33.426094 43.959954 
L 33.920156 42.242232 
L 35.111719 38.104975 
L 35.678438 36.88687 
L 36.128906 36.389036 
L 36.535781 36.249235 
L 37.029844 36.335081 
L 40.168594 37.297735 
L 40.226719 37.304867 
L 40.226719 37.304867 
" clip-path="url(#p11bbdf488d)" style="fill: none; stroke: #32cd32; stroke-linecap: square"/>
   </g>
   <g id="line2d_2">
    <path d="M 11.17875 36.757255 
L 12.559219 37.650363 
L 12.864375 37.72892 
L 13.983281 38.957279 
L 14.695312 39.330146 
L 15.625312 39.598199 
L 16.032187 39.784501 
L 16.192031 39.686896 
L 16.816875 38.953411 
L 17.877656 37.116046 
L 18.110156 37.018914 
L 18.560625 36.917044 
L 19.868437 36.240613 
L 20.24625 35.914951 
L 21.481406 35.956863 
L 21.859219 36.266285 
L 22.091719 36.348373 
L 22.818281 36.284554 
L 23.108906 36.283861 
L 23.472187 36.189665 
L 23.864531 35.980358 
L 24.126094 36.063273 
L 24.489375 36.126266 
L 24.692813 35.945787 
L 25.027031 35.459745 
L 25.535625 33.498721 
L 25.695469 32.548966 
L 25.695469 32.548966 
" clip-path="url(#p11bbdf488d)" style="fill: none; stroke: #000000; stroke-linecap: square"/>
   </g>
   <g id="line2d_3">
    <path d="M 25.71 39.607714 
L 26.087812 40.968647 
L 27.468281 47.478815 
L 27.889688 48.258064 
L 28.136719 48.311575 
L 28.38375 48.099471 
L 29.110312 47.229262 
L 29.822344 47.215389 
L 30.287344 47.153864 
L 30.534375 47.302462 
L 30.970312 47.494742 
L 31.29 47.433612 
L 32.060156 47.487868 
L 32.263594 47.32451 
L 32.597812 46.398242 
L 33.208125 43.89884 
L 34.501406 38.687796 
L 34.850156 38.378664 
L 35.751094 38.319721 
L 36.143437 38.257743 
L 37.189687 37.616205 
L 38.410313 37.673927 
L 40.023281 38.135089 
L 40.226719 38.197215 
L 40.226719 38.197215 
" clip-path="url(#p11bbdf488d)" style="fill: none; stroke: #000000; stroke-linecap: square"/>
   </g>
   <g id="patch_3">
    <path d="M 6.17875 46.10565 
L 6.17875 36.757255 
" style="fill: none; stroke: #000000; stroke-linejoin: miter; stroke-linecap: square"/>
   </g>
   <g id="text_1">
    <!-- Dorsal $\mathrm{Glu_{exo}}$ -->
    <g transform="translate(7.2 25.68)">
     <text>
      <tspan x="0" y="-0.4375" style="font-size: 6px; font-family: 'Arial'">D</tspan>
      <tspan x="4.333008" y="-0.4375" style="font-size: 6px; font-family: 'Arial'">o</tspan>
      <tspan x="7.669922" y="-0.4375" style="font-size: 6px; font-family: 'Arial'">r</tspan>
      <tspan x="9.667969" y="-0.4375" style="font-size: 6px; font-family: 'Arial'">s</tspan>
      <tspan x="12.667969" y="-0.4375" style="font-size: 6px; font-family: 'Arial'">a</tspan>
      <tspan x="16.004883" y="-0.4375" style="font-size: 6px; font-family: 'Arial'">l</tspan>
      <tspan x="17.337891" y="-0.4375" style="font-size: 6px; font-family: 'Arial'"> </tspan>
      <tspan x="19.004883" y="-0.4375" style="font-size: 6px; font-family: 'DejaVu Sans'">G</tspan>
      <tspan x="23.654297" y="-0.4375" style="font-size: 6px; font-family: 'DejaVu Sans'">l</tspan>
      <tspan x="25.321289" y="-0.4375" style="font-size: 6px; font-family: 'DejaVu Sans'">u</tspan>
      <tspan x="29.181445" y="0.546875" style="font-size: 4.2px; font-family: 'DejaVu Sans'">e</tspan>
      <tspan x="31.76543" y="0.546875" style="font-size: 4.2px; font-family: 'DejaVu Sans'">x</tspan>
      <tspan x="34.250977" y="0.546875" style="font-size: 4.2px; font-family: 'DejaVu Sans'">o</tspan>
     </text>
    </g>
   </g>
  </g>
  <g id="axes_2">
   <g id="patch_4">
    <path d="M 51.86625 50.797241 
L 80.92875 50.797241 
L 80.92875 31.68 
L 51.86625 31.68 
L 51.86625 50.797241 
z
" style="fill: none"/>
   </g>
   <g id="matplotlib.axis_3"/>
   <g id="matplotlib.axis_4"/>
   <g id="line2d_4">
    <path d="M 51.86625 34.752508 
L 52.185938 33.731243 
L 52.33125 33.735763 
L 52.578281 34.157389 
L 53.014219 34.764496 
L 53.508281 35.036369 
L 54.917813 35.43238 
L 57.431719 35.98657 
L 59.320781 36.185189 
L 59.53875 35.886855 
L 60.657656 34.038949 
L 61.137188 33.747276 
L 61.689375 33.68312 
L 62.706563 33.853822 
L 64.726406 34.130263 
L 66.499219 34.33986 
L 66.586406 35.133833 
L 67.589063 48.364538 
L 67.90875 49.758008 
L 68.112188 49.926528 
L 68.301094 49.772279 
L 68.664375 49.098596 
L 70.480781 45.381221 
L 71.178281 44.567885 
L 71.846719 44.119291 
L 72.55875 43.906831 
L 73.474219 43.878179 
L 73.8375 43.807043 
L 74.026406 43.325838 
L 74.389688 41.60595 
L 75.465 36.373718 
L 76.017188 34.777475 
L 76.496719 34.006441 
L 76.932656 33.696072 
L 77.383125 33.645117 
L 78.066094 33.825219 
L 79.76625 34.311348 
L 80.914219 34.459227 
L 80.914219 34.459227 
" clip-path="url(#pd68b700a83)" style="fill: none; stroke: #ff00ff; stroke-linecap: square"/>
   </g>
   <g id="line2d_5">
    <path d="M 51.86625 34.752508 
L 52.621875 35.613762 
L 53.551875 36.70188 
L 53.929688 36.657569 
L 54.7725 36.226013 
L 55.266563 35.879119 
L 55.629844 35.928414 
L 57.126563 36.150571 
L 57.402656 35.940703 
L 58.085625 35.501428 
L 60.744844 34.504749 
L 61.122656 34.445535 
L 61.674844 34.349023 
L 64.319531 34.077509 
L 65.307656 33.720881 
L 66.382969 33.899008 
L 66.382969 33.899008 
" clip-path="url(#pd68b700a83)" style="fill: none; stroke: #000000; stroke-linecap: square"/>
   </g>
   <g id="line2d_6">
    <path d="M 66.3975 35.639664 
L 66.731719 37.327854 
L 67.240313 41.139777 
L 67.966875 46.078897 
L 68.475469 48.124988 
L 68.766094 48.563888 
L 68.969531 48.553564 
L 69.449063 48.175122 
L 70.567969 47.357238 
L 72.660469 46.560533 
L 73.735781 46.471341 
L 73.997344 46.188277 
L 74.331563 45.49317 
L 74.782031 43.783793 
L 75.842813 38.367511 
L 76.482188 35.622012 
L 76.961719 34.448882 
L 77.659219 33.301231 
L 78.429375 32.759281 
L 78.981563 32.553945 
L 79.228594 32.679095 
L 80.274844 33.538192 
L 80.725313 34.700326 
L 80.914219 35.365504 
L 80.914219 35.365504 
" clip-path="url(#pd68b700a83)" style="fill: none; stroke: #000000; stroke-linecap: square"/>
   </g>
   <g id="patch_5">
    <path d="M 46.86625 37.568441 
L 46.86625 34.752508 
" style="fill: none; stroke: #000000; stroke-linejoin: miter; stroke-linecap: square"/>
   </g>
   <g id="text_2">
    <!-- Ventral $\mathrm{Glu_{exo}}$ -->
    <g transform="translate(47.0475 25.68)">
     <text>
      <tspan x="0" y="-0.4375" style="font-size: 6px; font-family: 'Arial'">V</tspan>
      <tspan x="4.001953" y="-0.4375" style="font-size: 6px; font-family: 'Arial'">e</tspan>
      <tspan x="7.338867" y="-0.4375" style="font-size: 6px; font-family: 'Arial'">n</tspan>
      <tspan x="10.675781" y="-0.4375" style="font-size: 6px; font-family: 'Arial'">t</tspan>
      <tspan x="12.342773" y="-0.4375" style="font-size: 6px; font-family: 'Arial'">r</tspan>
      <tspan x="14.34082" y="-0.4375" style="font-size: 6px; font-family: 'Arial'">a</tspan>
      <tspan x="17.677734" y="-0.4375" style="font-size: 6px; font-family: 'Arial'">l</tspan>
      <tspan x="19.010742" y="-0.4375" style="font-size: 6px; font-family: 'Arial'"> </tspan>
      <tspan x="20.677734" y="-0.4375" style="font-size: 6px; font-family: 'DejaVu Sans'">G</tspan>
      <tspan x="25.327148" y="-0.4375" style="font-size: 6px; font-family: 'DejaVu Sans'">l</tspan>
      <tspan x="26.994141" y="-0.4375" style="font-size: 6px; font-family: 'DejaVu Sans'">u</tspan>
      <tspan x="30.854297" y="0.546875" style="font-size: 4.2px; font-family: 'DejaVu Sans'">e</tspan>
      <tspan x="33.438281" y="0.546875" style="font-size: 4.2px; font-family: 'DejaVu Sans'">x</tspan>
      <tspan x="35.923828" y="0.546875" style="font-size: 4.2px; font-family: 'DejaVu Sans'">o</tspan>
     </text>
    </g>
   </g>
  </g>
  <g id="axes_3">
   <g id="patch_6">
    <path d="M 11.17875 73.737931 
L 40.24125 73.737931 
L 40.24125 54.62069 
L 11.17875 54.62069 
L 11.17875 73.737931 
z
" style="fill: none"/>
   </g>
   <g id="matplotlib.axis_5"/>
   <g id="matplotlib.axis_6"/>
   <g id="line2d_7">
    <path d="M 11.17875 59.804877 
L 11.324062 58.892853 
L 11.367656 59.043673 
L 11.5275 60.94647 
L 12.399375 71.804809 
L 12.660937 72.831442 
L 12.791719 72.838954 
L 12.80625 72.824233 
L 12.995156 72.436921 
L 13.474687 70.747553 
L 14.361094 67.812921 
L 14.927812 66.650203 
L 15.436406 66.073293 
L 15.930469 65.832542 
L 16.497187 65.813876 
L 17.296406 66.036634 
L 18.662344 66.448013 
L 18.865781 66.002876 
L 19.258125 64.464101 
L 20.769375 58.144603 
L 21.307031 56.898807 
L 21.742969 56.387192 
L 22.149844 56.234463 
L 22.629375 56.307754 
L 23.748281 56.793179 
L 25.056094 57.21919 
L 25.913438 57.511695 
L 26.087812 58.187763 
L 26.887031 61.950587 
L 27.22125 62.393253 
L 27.57 62.509895 
L 28.078594 62.415542 
L 30.171094 61.853475 
L 31.595156 61.810814 
L 33.237187 61.750948 
L 33.513281 61.163633 
L 34.675781 58.402069 
L 35.155313 57.892109 
L 35.620312 57.712497 
L 36.230625 57.739104 
L 40.226719 58.356066 
L 40.226719 58.356066 
" clip-path="url(#pd6a084fd88)" style="fill: none; stroke: #32cd32; stroke-linecap: square"/>
   </g>
   <g id="line2d_8">
    <path d="M 11.17875 59.804877 
L 11.730937 62.473262 
L 13.024219 70.045156 
L 13.474687 71.0376 
L 13.663594 71.146585 
L 13.954219 71.022361 
L 16.308281 69.201839 
L 16.962187 68.464447 
L 17.427187 67.972821 
L 18.226406 66.816416 
L 18.604219 65.621508 
L 19.170938 62.709869 
L 20.275312 56.567732 
L 20.638594 55.653801 
L 20.900156 55.492158 
L 21.06 55.589913 
L 22.048125 56.942478 
L 22.469531 57.56378 
L 22.774687 57.735066 
L 22.963594 57.70046 
L 23.370469 57.758857 
L 23.704687 57.870068 
L 24.053438 57.66412 
L 25.070625 56.861768 
L 25.695469 55.97919 
L 25.695469 55.97919 
" clip-path="url(#pd6a084fd88)" style="fill: none; stroke: #000000; stroke-linecap: square"/>
   </g>
   <g id="line2d_9">
    <path d="M 25.71 57.915489 
L 26.073281 59.153318 
L 26.799844 61.650413 
L 27.279375 62.597484 
L 27.787969 63.139534 
L 28.035 63.096112 
L 28.630781 62.726586 
L 28.979531 62.569095 
L 29.400937 62.324761 
L 29.938594 62.022536 
L 30.461719 61.855938 
L 31.072031 61.808438 
L 31.435313 61.798813 
L 32.22 61.587587 
L 32.56875 61.14802 
L 33.789375 58.691281 
L 34.327031 57.585274 
L 35.039062 56.983005 
L 35.184375 56.99522 
L 35.7075 57.385648 
L 36.157969 57.84654 
L 37.160625 58.47247 
L 37.509375 58.503602 
L 38.4975 58.151915 
L 38.918906 58.092232 
L 39.471094 58.149799 
L 39.921563 57.835897 
L 40.226719 57.558109 
L 40.226719 57.558109 
" clip-path="url(#pd6a084fd88)" style="fill: none; stroke: #000000; stroke-linecap: square"/>
   </g>
   <g id="patch_7">
    <path d="M 6.17875 65.68535 
L 6.17875 59.804877 
" style="fill: none; stroke: #000000; stroke-linejoin: miter; stroke-linecap: square"/>
   </g>
  </g>
  <g id="axes_4">
   <g id="patch_8">
    <path d="M 51.86625 73.737931 
L 80.92875 73.737931 
L 80.92875 54.62069 
L 51.86625 54.62069 
L 51.86625 73.737931 
z
" style="fill: none"/>
   </g>
   <g id="matplotlib.axis_7"/>
   <g id="matplotlib.axis_8"/>
   <g id="line2d_10">
    <path d="M 51.86625 58.259511 
L 52.171406 56.961483 
L 52.273125 57.007975 
L 52.476563 57.568509 
L 52.956094 58.78815 
L 53.333906 59.147377 
L 53.944219 59.367815 
L 58.434375 60.396802 
L 59.349844 60.439449 
L 59.582344 60.042387 
L 60.977344 57.160412 
L 61.442344 56.82318 
L 61.936406 56.73777 
L 62.706563 56.866725 
L 65.017031 57.315114 
L 66.499219 57.548566 
L 66.600938 58.43456 
L 67.67625 71.888181 
L 67.952344 72.789977 
L 68.14125 72.855331 
L 68.359219 72.631765 
L 68.83875 71.716717 
L 70.23375 68.989517 
L 70.974844 68.050436 
L 71.672344 67.51493 
L 72.398906 67.236226 
L 73.285313 67.146428 
L 73.866563 67.048432 
L 74.07 66.557815 
L 74.476875 64.84404 
L 75.784688 59.126992 
L 76.351406 57.663951 
L 76.816406 57.023729 
L 77.223281 56.806615 
L 77.688281 56.81868 
L 78.531094 57.121455 
L 79.984219 57.582661 
L 80.914219 57.743075 
L 80.914219 57.743075 
" clip-path="url(#p1db25ee7fc)" style="fill: none; stroke: #ff00ff; stroke-linecap: square"/>
   </g>
   <g id="line2d_11">
    <path d="M 51.86625 58.259511 
L 53.319375 59.478495 
L 54.133125 59.885748 
L 55.35375 59.835067 
L 55.775156 59.816257 
L 55.978594 59.898157 
L 56.995781 60.48587 
L 57.44625 60.465023 
L 58.463438 60.277868 
L 58.84125 60.022457 
L 59.698594 58.94522 
L 60.192656 57.846516 
L 60.657656 56.844427 
L 61.093594 56.355295 
L 61.878281 56.068978 
L 62.285156 56.510411 
L 62.924531 57.038287 
L 63.418594 57.411384 
L 64.057969 57.86513 
L 64.42125 57.985506 
L 64.726406 58.299055 
L 65.11875 58.634313 
L 65.4675 58.595785 
L 66.092344 58.251366 
L 66.382969 57.642764 
L 66.382969 57.642764 
" clip-path="url(#p1db25ee7fc)" style="fill: none; stroke: #000000; stroke-linecap: square"/>
   </g>
   <g id="line2d_12">
    <path d="M 66.3975 60.295324 
L 67.109531 64.400629 
L 68.054063 70.005623 
L 68.533594 71.458688 
L 68.940469 72.047744 
L 69.172969 72.002023 
L 69.434531 71.697223 
L 71.207344 68.805214 
L 71.570625 68.707899 
L 72.253594 68.745708 
L 72.820312 68.789226 
L 73.343438 68.508339 
L 73.619531 68.119741 
L 73.982813 67.295387 
L 74.535 65.330515 
L 75.072656 62.694806 
L 75.871875 58.719866 
L 76.554844 56.684436 
L 76.947188 56.15034 
L 78.385781 55.536057 
L 78.545625 55.707065 
L 78.908906 56.065111 
L 79.112344 56.328533 
L 80.652656 59.181446 
L 80.914219 60.179246 
L 80.914219 60.179246 
" clip-path="url(#p1db25ee7fc)" style="fill: none; stroke: #000000; stroke-linecap: square"/>
   </g>
   <g id="patch_9">
    <path d="M 46.86625 62.476432 
L 46.86625 58.259511 
" style="fill: none; stroke: #000000; stroke-linejoin: miter; stroke-linecap: square"/>
   </g>
  </g>
  <g id="axes_5">
   <g id="patch_10">
    <path d="M 11.17875 96.678621 
L 40.24125 96.678621 
L 40.24125 77.561379 
L 11.17875 77.561379 
L 11.17875 96.678621 
z
" style="fill: none"/>
   </g>
   <g id="matplotlib.axis_9"/>
   <g id="matplotlib.axis_10"/>
   <g id="line2d_13">
    <path d="M 11.17875 80.422904 
L 11.309531 79.711017 
L 11.353125 79.896327 
L 11.512969 82.167595 
L 12.312187 93.850406 
L 12.617344 95.669524 
L 12.762656 95.806244 
L 12.791719 95.789724 
L 12.951562 95.513185 
L 13.314844 94.289804 
L 14.375625 90.664868 
L 14.927812 89.557045 
L 15.421875 89.024551 
L 15.901406 88.8184 
L 16.453594 88.829319 
L 17.252812 89.087836 
L 18.662344 89.54491 
L 18.865781 89.080645 
L 19.258125 87.475278 
L 20.783906 80.824868 
L 21.307031 79.567232 
L 21.728437 79.06257 
L 22.10625 78.928565 
L 22.556719 79.024427 
L 23.530313 79.542914 
L 24.66375 80.029355 
L 25.986094 80.551296 
L 26.233125 81.477194 
L 26.75625 83.345336 
L 27.119531 83.878925 
L 27.497344 84.064357 
L 28.020469 84.050829 
L 30.679688 83.717315 
L 32.946562 83.827955 
L 33.222656 83.7461 
L 33.484219 83.286424 
L 34.515937 81.246023 
L 34.980938 80.853944 
L 35.460469 80.734879 
L 36.157969 80.817146 
L 38.831719 81.285115 
L 40.226719 81.397428 
L 40.226719 81.397428 
" clip-path="url(#p8077ac94fb)" style="fill: none; stroke: #32cd32; stroke-linecap: square"/>
   </g>
   <g id="line2d_14">
    <path d="M 11.17875 80.422904 
L 11.498437 81.749365 
L 12.050625 85.160596 
L 13.053281 91.110705 
L 13.416562 92.225257 
L 13.678125 92.570304 
L 14.070469 92.650848 
L 14.884219 92.510812 
L 15.189375 92.639703 
L 15.610781 93.091507 
L 16.206563 93.888406 
L 17.209219 94.426705 
L 17.543437 94.328682 
L 17.805 94.014973 
L 18.240937 92.830023 
L 18.633281 91.021771 
L 19.301719 86.270978 
L 19.984687 81.703145 
L 20.449687 79.689809 
L 20.71125 79.153651 
L 20.900156 79.138999 
L 21.583125 79.660495 
L 22.629375 80.904897 
L 22.832812 80.851007 
L 23.661094 80.295182 
L 23.864531 80.269564 
L 24.315 79.889531 
L 24.910781 79.301397 
L 25.36125 78.965318 
L 25.622812 78.549373 
L 25.695469 78.430345 
L 25.695469 78.430345 
" clip-path="url(#p8077ac94fb)" style="fill: none; stroke: #000000; stroke-linecap: square"/>
   </g>
   <g id="line2d_15">
    <path d="M 25.71 80.191447 
L 26.625469 81.305655 
L 27.192188 82.466858 
L 27.497344 82.884471 
L 28.136719 83.804398 
L 28.572656 84.284466 
L 28.790625 84.357412 
L 29.241094 84.109967 
L 29.895 83.969889 
L 30.766875 83.669488 
L 31.217344 83.925559 
L 31.5225 83.880776 
L 32.932031 83.804744 
L 33.222656 83.572845 
L 33.426094 83.44866 
L 34.457813 82.141707 
L 34.864688 81.491991 
L 35.01 81.32216 
L 35.692969 80.399111 
L 36.303281 80.059097 
L 36.564844 80.161709 
L 37.175156 80.143068 
L 38.134219 80.956978 
L 38.410313 80.805262 
L 38.9625 80.958083 
L 39.267656 80.940518 
L 39.485625 80.612391 
L 39.761719 79.963977 
L 40.125 79.151429 
L 40.226719 78.906817 
L 40.226719 78.906817 
" clip-path="url(#p8077ac94fb)" style="fill: none; stroke: #000000; stroke-linecap: square"/>
   </g>
   <g id="patch_11">
    <path d="M 6.17875 87.509916 
L 6.17875 80.422904 
" style="fill: none; stroke: #000000; stroke-linejoin: miter; stroke-linecap: square"/>
   </g>
  </g>
  <g id="axes_6">
   <g id="patch_12">
    <path d="M 51.86625 96.678621 
L 80.92875 96.678621 
L 80.92875 77.561379 
L 51.86625 77.561379 
L 51.86625 96.678621 
z
" style="fill: none"/>
   </g>
   <g id="matplotlib.axis_11"/>
   <g id="matplotlib.axis_12"/>
   <g id="line2d_16">
    <path d="M 51.86625 80.544139 
L 52.200469 79.040093 
L 52.374844 78.949932 
L 52.592813 79.195247 
L 53.290313 80.008691 
L 54.133125 80.589572 
L 55.47 81.223464 
L 57.024844 81.700454 
L 59.088281 82.071193 
L 59.393438 82.005802 
L 59.669531 81.577044 
L 60.628594 79.963181 
L 61.122656 79.591376 
L 61.63125 79.484334 
L 62.415938 79.583459 
L 65.104219 80.035034 
L 66.499219 80.26013 
L 66.600938 81.195165 
L 67.632656 94.473126 
L 67.923281 95.651775 
L 68.126719 95.80809 
L 68.330156 95.652719 
L 68.737031 94.960182 
L 70.451719 91.80178 
L 71.178281 90.994121 
L 71.890313 90.528 
L 72.645938 90.299949 
L 73.619531 90.253215 
L 73.852031 90.166545 
L 74.055469 89.707739 
L 74.433281 88.153906 
L 75.944531 81.501801 
L 76.482188 80.18227 
L 76.932656 79.606039 
L 77.339531 79.422851 
L 77.804531 79.466223 
L 78.763594 79.849878 
L 80.071406 80.278893 
L 80.914219 80.437745 
L 80.914219 80.437745 
" clip-path="url(#p89abfd0d4f)" style="fill: none; stroke: #ff00ff; stroke-linecap: square"/>
   </g>
   <g id="line2d_17">
    <path d="M 51.86625 80.544139 
L 52.985156 81.181524 
L 53.711719 81.227786 
L 54.075 80.97256 
L 55.019531 80.0222 
L 55.310156 79.961377 
L 55.81875 79.958596 
L 56.123906 80.411548 
L 56.952188 81.821261 
L 57.591563 82.418395 
L 57.838594 82.417929 
L 58.14375 82.138717 
L 59.001094 81.275447 
L 59.495156 81.261949 
L 60.163594 81.205768 
L 60.643125 80.931396 
L 61.006406 80.625112 
L 61.660313 79.883783 
L 61.98 79.913418 
L 63.084375 80.832222 
L 63.447656 80.891704 
L 63.752813 80.725701 
L 64.18875 80.445794 
L 64.377656 80.250884 
L 64.973438 79.680796 
L 65.511094 80.101428 
L 65.888906 80.321642 
L 66.382969 80.001388 
L 66.382969 80.001388 
" clip-path="url(#p89abfd0d4f)" style="fill: none; stroke: #000000; stroke-linecap: square"/>
   </g>
   <g id="line2d_18">
    <path d="M 66.3975 82.214312 
L 66.833438 84.309479 
L 68.533594 93.214372 
L 68.853281 93.744554 
L 69.143906 93.805456 
L 70.161094 93.357844 
L 71.367188 92.66497 
L 71.846719 92.580771 
L 72.398906 92.734649 
L 73.241719 93.24262 
L 73.590469 93.220341 
L 74.040938 92.627515 
L 74.447813 91.46958 
L 74.898281 89.02953 
L 76.409531 79.577253 
L 76.758281 78.763512 
L 77.223281 78.456395 
L 78.996094 78.879907 
L 79.635469 78.8823 
L 80.216719 80.113188 
L 80.652656 81.625634 
L 80.914219 82.961161 
L 80.914219 82.961161 
" clip-path="url(#p89abfd0d4f)" style="fill: none; stroke: #000000; stroke-linecap: square"/>
   </g>
   <g id="patch_13">
    <path d="M 46.86625 85.249088 
L 46.86625 80.544139 
" style="fill: none; stroke: #000000; stroke-linejoin: miter; stroke-linecap: square"/>
   </g>
   <g id="legend_1">
    <g id="line2d_19">
     <path d="M 87.781875 61.453125 
L 89.281875 61.453125 
L 90.781875 61.453125 
" style="fill: none; stroke: #000000; stroke-linecap: square"/>
    </g>
    <g id="text_3">
     <text style="font-size: 6px; font-family: 'Arial', sans-serif, serif; text-anchor: start" x="95.581875" y="63.553125" transform="rotate(-0 95.581875 63.553125)">Data</text>
    </g>
    <g id="line2d_20">
     <path d="M 87.781875 69.940313 
L 89.281875 69.940313 
L 90.781875 69.940313 
" style="fill: none; stroke: #32cd32; stroke-linecap: square"/>
    </g>
    <g id="text_4">
     <text style="font-size: 6px; font-family: 'Arial', sans-serif, serif; text-anchor: start" x="95.581875" y="72.040312" transform="rotate(-0 95.581875 72.040312)">Sim.</text>
    </g>
    <g id="line2d_21">
     <path d="M 87.781875 78.4275 
L 89.281875 78.4275 
L 90.781875 78.4275 
" style="fill: none; stroke: #ff00ff; stroke-linecap: square"/>
    </g>
    <g id="text_5">
     <text style="font-size: 6px; font-family: 'Arial', sans-serif, serif; text-anchor: start" x="95.581875" y="80.5275" transform="rotate(-0 95.581875 80.5275)">Sim.</text>
    </g>
   </g>
  </g>
  <g id="axes_7">
   <g id="patch_14">
    <path d="M 11.17875 119.61931 
L 40.24125 119.61931 
L 40.24125 100.502069 
L 11.17875 100.502069 
L 11.17875 119.61931 
z
" style="fill: none"/>
   </g>
   <g id="matplotlib.axis_13"/>
   <g id="matplotlib.axis_14"/>
   <g id="line2d_22">
    <path d="M 11.17875 106.197366 
L 11.324062 105.355549 
L 11.367656 105.505563 
L 11.5275 107.324583 
L 12.384844 117.511539 
L 12.660937 118.666888 
L 12.820781 118.735774 
L 12.995156 118.500703 
L 13.372969 117.503955 
L 14.506406 114.426527 
L 15.073125 113.538122 
L 15.59625 113.109439 
L 16.133906 112.957434 
L 16.802344 113.021392 
L 17.906719 113.393855 
L 18.647813 113.564578 
L 18.836719 113.217577 
L 19.185469 111.99754 
L 21.103594 104.483286 
L 21.583125 103.645711 
L 22.004531 103.320679 
L 22.425937 103.271963 
L 23.03625 103.454815 
L 25.172344 104.235332 
L 25.898906 104.503607 
L 26.05875 105.156733 
L 26.959688 109.803497 
L 27.293906 110.234025 
L 27.642656 110.345295 
L 28.15125 110.245205 
L 30.345469 109.621018 
L 31.711406 109.570583 
L 33.237187 109.493533 
L 33.513281 108.887652 
L 34.879219 105.438733 
L 35.344219 104.94797 
L 35.809219 104.766399 
L 36.419531 104.789405 
L 40.226719 105.413702 
L 40.226719 105.413702 
" clip-path="url(#p422deb6f9a)" style="fill: none; stroke: #32cd32; stroke-linecap: square"/>
   </g>
   <g id="line2d_23">
    <path d="M 11.17875 106.197366 
L 11.556562 106.76977 
L 11.963437 107.849982 
L 12.515625 110.506956 
L 13.460156 115.755856 
L 13.96875 117.304908 
L 14.302969 117.720392 
L 14.506406 117.685946 
L 14.767969 117.437072 
L 15.087656 117.296558 
L 15.857812 116.799597 
L 16.395469 116.471384 
L 16.802344 116.447382 
L 17.68875 116.193794 
L 17.906719 116.317602 
L 18.139219 116.362855 
L 18.400781 116.134902 
L 18.676875 115.651149 
L 19.069219 114.439742 
L 19.490625 112.639011 
L 19.853906 110.085116 
L 20.696719 104.174967 
L 21.379687 101.547487 
L 21.583125 101.381994 
L 21.815625 101.520894 
L 22.120781 102.062674 
L 23.588437 105.087596 
L 24.315 105.463715 
L 24.620156 105.466401 
L 24.881719 105.3706 
L 25.651875 104.662915 
L 25.695469 104.575556 
L 25.695469 104.575556 
" clip-path="url(#p422deb6f9a)" style="fill: none; stroke: #000000; stroke-linecap: square"/>
   </g>
   <g id="line2d_24">
    <path d="M 25.71 105.818203 
L 27.090469 107.111735 
L 27.57 107.891116 
L 28.819688 108.926771 
L 29.182969 109.027221 
L 29.400937 109.09371 
L 29.822344 109.45153 
L 30.548906 110.339491 
L 30.839531 110.390089 
L 31.0575 110.481046 
L 31.725938 111.098207 
L 32.22 111.312487 
L 33.004687 111.839941 
L 33.208125 111.64467 
L 33.527812 111.022499 
L 33.920156 109.951135 
L 34.327031 108.430772 
L 35.213437 105.28568 
L 35.620312 104.683831 
L 36.245156 104.628283 
L 36.724688 104.746564 
L 36.884531 104.72161 
L 37.494844 104.485455 
L 38.715469 102.84398 
L 39.500156 102.265676 
L 40.226719 102.774942 
L 40.226719 102.774942 
" clip-path="url(#p422deb6f9a)" style="fill: none; stroke: #000000; stroke-linecap: square"/>
   </g>
   <g id="patch_15">
    <path d="M 6.17875 112.610745 
L 6.17875 106.197366 
" style="fill: none; stroke: #000000; stroke-linejoin: miter; stroke-linecap: square"/>
   </g>
  </g>
  <g id="axes_8">
   <g id="patch_16">
    <path d="M 51.86625 119.61931 
L 80.92875 119.61931 
L 80.92875 100.502069 
L 51.86625 100.502069 
L 51.86625 119.61931 
z
" style="fill: none"/>
   </g>
   <g id="matplotlib.axis_15"/>
   <g id="matplotlib.axis_16"/>
   <g id="line2d_25">
    <path d="M 51.86625 104.256877 
L 52.156875 102.827722 
L 52.244063 102.914855 
L 52.4475 103.720397 
L 52.9125 105.421084 
L 53.232188 105.838014 
L 53.624531 105.979431 
L 57.053906 106.581942 
L 59.262656 106.985941 
L 59.437031 106.791281 
L 59.756719 105.983645 
L 60.890156 102.937109 
L 61.384219 102.267636 
L 61.834688 102.005459 
L 62.357813 101.971275 
L 63.302344 102.189334 
L 65.191406 102.590662 
L 66.499219 102.837735 
L 66.600938 103.701128 
L 67.748906 117.95802 
L 68.010469 118.681228 
L 68.213906 118.73431 
L 68.460938 118.497228 
L 68.969531 117.608278 
L 70.46625 114.907857 
L 71.207344 114.069699 
L 71.904844 113.604439 
L 72.660469 113.369644 
L 73.619531 113.31916 
L 73.852031 113.231778 
L 74.055469 112.771311 
L 74.433281 111.208253 
L 76.017188 104.1422 
L 76.554844 102.858207 
L 76.990781 102.325443 
L 77.397656 102.149926 
L 77.891719 102.194846 
L 78.996094 102.60679 
L 80.318438 102.988778 
L 80.914219 103.097369 
L 80.914219 103.097369 
" clip-path="url(#p06acddd55a)" style="fill: none; stroke: #ff00ff; stroke-linecap: square"/>
   </g>
   <g id="line2d_26">
    <path d="M 51.86625 104.256877 
L 52.316719 104.365959 
L 52.941563 104.735144 
L 55.106719 106.770881 
L 55.455469 106.782468 
L 55.862344 106.815277 
L 58.477969 107.24916 
L 58.739531 107.021102 
L 59.030156 106.807853 
L 59.219063 106.625465 
L 59.684063 105.798295 
L 60.308906 104.433988 
L 61.326094 102.399404 
L 62.081719 102.085568 
L 62.692031 102.200588 
L 62.982656 102.290193 
L 63.273281 102.215989 
L 63.869063 101.923224 
L 64.261406 101.857256 
L 65.176875 102.002236 
L 66.208594 102.246346 
L 66.382969 102.189353 
L 66.382969 102.189353 
" clip-path="url(#p06acddd55a)" style="fill: none; stroke: #000000; stroke-linecap: square"/>
   </g>
   <g id="line2d_27">
    <path d="M 66.3975 105.813441 
L 66.935156 108.691341 
L 67.937813 114.784236 
L 68.431875 116.472976 
L 68.824219 117.080332 
L 69.158438 117.190429 
L 70.030313 116.810496 
L 70.974844 116.151466 
L 71.904844 115.505484 
L 72.602344 115.238904 
L 73.198125 114.966984 
L 73.503281 114.651412 
L 73.881094 113.946867 
L 74.346094 112.500292 
L 74.840156 110.220994 
L 76.147969 103.961811 
L 76.685625 102.347854 
L 77.20875 101.66367 
L 77.877188 101.384583 
L 78.167813 101.560543 
L 79.126875 102.202987 
L 79.562813 102.421138 
L 80.027813 102.815018 
L 80.260313 103.286742 
L 80.652656 104.643816 
L 80.914219 105.943672 
L 80.914219 105.943672 
" clip-path="url(#p06acddd55a)" style="fill: none; stroke: #000000; stroke-linecap: square"/>
   </g>
   <g id="patch_17">
    <path d="M 46.86625 109.215543 
L 46.86625 104.256877 
" style="fill: none; stroke: #000000; stroke-linejoin: miter; stroke-linecap: square"/>
   </g>
  </g>
  <g id="axes_9">
   <g id="patch_18">
    <path d="M 11.17875 142.56 
L 40.24125 142.56 
L 40.24125 123.442759 
L 11.17875 123.442759 
L 11.17875 142.56 
z
" style="fill: none"/>
   </g>
   <g id="matplotlib.axis_17">
    <g id="xtick_1">
     <g id="line2d_28">
      <defs>
       <path id="meb4b9dde93" d="M 0 0 
L 0 2 
" style="stroke: #000000"/>
      </defs>
      <g>
       <use xlink:href="#meb4b9dde93" x="11.17875" y="147.56" style="stroke: #000000"/>
      </g>
     </g>
     <g id="text_6">
      <text style="font-size: 6px; font-family: 'Arial', sans-serif, serif; text-anchor: middle" x="11.17875" y="157.354688" transform="rotate(-0 11.17875 157.354688)">0</text>
     </g>
    </g>
    <g id="xtick_2">
     <g id="line2d_29">
      <g>
       <use xlink:href="#meb4b9dde93" x="40.24125" y="147.56" style="stroke: #000000"/>
      </g>
     </g>
     <g id="text_7">
      <text style="font-size: 6px; font-family: 'Arial', sans-serif, serif; text-anchor: middle" x="40.24125" y="157.354688" transform="rotate(-0 40.24125 157.354688)">4</text>
     </g>
    </g>
    <g id="text_8">
     <text style="font-size: 6px; font-family: 'Arial', sans-serif, serif; text-anchor: middle" x="25.71" y="164.915" transform="rotate(-0 25.71 164.915)">Time (s)</text>
    </g>
   </g>
   <g id="matplotlib.axis_18"/>
   <g id="line2d_30">
    <path d="M 11.17875 127.824351 
L 11.309531 127.009529 
L 11.353125 127.112124 
L 11.483906 128.619449 
L 12.399375 140.525524 
L 12.660937 141.629008 
L 12.80625 141.667214 
L 12.980625 141.370868 
L 13.372969 140.120957 
L 14.404687 136.830136 
L 14.971406 135.753212 
L 15.48 135.234516 
L 15.974062 135.034435 
L 16.555312 135.048938 
L 17.427187 135.327109 
L 18.647813 135.710594 
L 18.836719 135.329668 
L 19.2 133.944879 
L 20.914687 126.755241 
L 21.423281 125.690816 
L 21.844687 125.273343 
L 22.251562 125.177316 
L 22.774687 125.31272 
L 25.492031 126.3242 
L 25.898906 126.50117 
L 26.05875 127.070209 
L 26.974219 131.248132 
L 27.308438 131.596978 
L 27.671719 131.666288 
L 28.2675 131.513162 
L 29.851406 131.057184 
L 31.101094 130.968834 
L 33.26625 130.871532 
L 33.571406 130.153693 
L 34.603125 127.579343 
L 35.082656 126.989974 
L 35.533125 126.766894 
L 36.085313 126.756952 
L 37.422187 127.058738 
L 39.151406 127.332714 
L 40.226719 127.42695 
L 40.226719 127.42695 
" clip-path="url(#pf6d50a38f0)" style="fill: none; stroke: #32cd32; stroke-linecap: square"/>
   </g>
   <g id="line2d_31">
    <path d="M 11.17875 127.824351 
L 11.382187 128.316219 
L 11.76 129.893742 
L 12.254062 133.053379 
L 13.067812 137.684316 
L 13.431094 138.798974 
L 13.721719 139.056793 
L 13.96875 139.012095 
L 14.172187 138.972977 
L 14.520937 138.944505 
L 14.724375 138.690289 
L 15.305625 138.153708 
L 15.82875 137.9878 
L 16.250156 137.981623 
L 16.380937 138.093602 
L 16.744219 138.653216 
L 17.732344 140.437052 
L 17.877656 140.37912 
L 18.095625 140.029358 
L 18.429844 139.037424 
L 18.822187 136.931288 
L 20.565937 125.829938 
L 20.842031 125.330578 
L 21.161719 125.164217 
L 21.612187 125.323021 
L 22.193438 126.179902 
L 23.385 127.533573 
L 23.6175 127.567665 
L 23.995312 127.648292 
L 24.315 127.591813 
L 24.678281 127.333507 
L 25.114219 126.557291 
L 25.680937 124.548681 
L 25.695469 124.479509 
L 25.695469 124.479509 
" clip-path="url(#pf6d50a38f0)" style="fill: none; stroke: #000000; stroke-linecap: square"/>
   </g>
   <g id="line2d_32">
    <path d="M 25.71 127.776932 
L 26.116875 128.48577 
L 26.669063 129.678901 
L 27.119531 130.449863 
L 27.395625 130.490829 
L 27.758906 130.483367 
L 28.049531 130.553597 
L 28.311094 130.599768 
L 28.717969 130.935931 
L 29.095781 131.556694 
L 29.54625 132.11815 
L 29.851406 132.444305 
L 30.389063 132.812223 
L 30.854062 132.442561 
L 31.246406 132.016448 
L 31.63875 131.441831 
L 32.859375 129.780592 
L 33.019219 129.786355 
L 33.208125 129.719558 
L 33.571406 129.227279 
L 33.891094 128.423093 
L 35.169844 124.875611 
L 35.504062 124.581685 
L 35.533125 124.609848 
L 35.838281 125.05252 
L 36.114375 125.330974 
L 36.782812 125.534262 
L 37.146094 125.750984 
L 37.712812 125.762565 
L 37.872656 125.811994 
L 38.235937 126.544224 
L 38.61375 127.133666 
L 38.817188 127.199318 
L 39.296719 127.178511 
L 39.500156 126.92931 
L 39.863437 126.128792 
L 40.226719 124.311724 
L 40.226719 124.311724 
" clip-path="url(#pf6d50a38f0)" style="fill: none; stroke: #000000; stroke-linecap: square"/>
   </g>
   <g id="patch_19">
    <path d="M 6.17875 133.916 
L 6.17875 127.824351 
" style="fill: none; stroke: #000000; stroke-linejoin: miter; stroke-linecap: square"/>
   </g>
   <g id="patch_20">
    <path d="M 11.17875 147.56 
L 40.24125 147.56 
" style="fill: none; stroke: #000000; stroke-linejoin: miter; stroke-linecap: square"/>
   </g>
  </g>
  <g id="axes_10">
   <g id="patch_21">
    <path d="M 51.86625 142.56 
L 80.92875 142.56 
L 80.92875 123.442759 
L 51.86625 123.442759 
L 51.86625 142.56 
z
" style="fill: none"/>
   </g>
   <g id="matplotlib.axis_19">
    <g id="xtick_3">
     <g id="line2d_33">
      <g>
       <use xlink:href="#meb4b9dde93" x="51.86625" y="147.56" style="stroke: #000000"/>
      </g>
     </g>
     <g id="text_9">
      <text style="font-size: 6px; font-family: 'Arial', sans-serif, serif; text-anchor: middle" x="51.86625" y="157.354688" transform="rotate(-0 51.86625 157.354688)">0</text>
     </g>
    </g>
    <g id="xtick_4">
     <g id="line2d_34">
      <g>
       <use xlink:href="#meb4b9dde93" x="80.92875" y="147.56" style="stroke: #000000"/>
      </g>
     </g>
     <g id="text_10">
      <text style="font-size: 6px; font-family: 'Arial', sans-serif, serif; text-anchor: middle" x="80.92875" y="157.354688" transform="rotate(-0 80.92875 157.354688)">4</text>
     </g>
    </g>
    <g id="text_11">
     <text style="font-size: 6px; font-family: 'Arial', sans-serif, serif; text-anchor: middle" x="66.3975" y="164.915" transform="rotate(-0 66.3975 164.915)">Time (s)</text>
    </g>
   </g>
   <g id="matplotlib.axis_20"/>
   <g id="line2d_35">
    <path d="M 51.86625 125.867666 
L 52.156875 124.875405 
L 52.273125 124.91925 
L 52.476563 125.398861 
L 53.057813 126.76504 
L 53.566406 127.351348 
L 54.292969 127.827152 
L 55.484531 128.315489 
L 57.024844 128.708953 
L 59.219063 129.028455 
L 59.407969 128.91513 
L 59.713125 128.367621 
L 60.541406 126.872614 
L 61.020938 126.468251 
L 61.500469 126.354611 
L 62.183438 126.451451 
L 64.552031 126.918713 
L 66.51375 127.257919 
L 66.63 128.559024 
L 67.44375 139.610597 
L 67.777969 141.460801 
L 67.981406 141.689626 
L 68.14125 141.547529 
L 68.475469 140.846377 
L 69.812344 137.852937 
L 70.538906 136.805025 
L 71.221875 136.185868 
L 71.933906 135.836431 
L 72.762188 135.688986 
L 73.910156 135.526863 
L 74.157188 134.823143 
L 74.7675 132.148004 
L 75.682969 128.480254 
L 76.249688 127.03544 
L 76.700156 126.419639 
L 77.0925 126.21987 
L 77.528438 126.254442 
L 78.298594 126.594484 
L 79.577344 127.099185 
L 80.914219 127.349282 
L 80.914219 127.349282 
" clip-path="url(#pa6cf91f17a)" style="fill: none; stroke: #ff00ff; stroke-linecap: square"/>
   </g>
   <g id="line2d_36">
    <path d="M 51.86625 125.867666 
L 52.229531 126.179635 
L 52.897969 127.219234 
L 53.421094 128.123045 
L 53.973281 128.610262 
L 54.481875 128.718016 
L 54.88875 128.518607 
L 55.382813 128.273619 
L 56.894063 128.129529 
L 57.388125 128.105958 
L 58.289063 127.666262 
L 59.349844 127.99727 
L 60.047344 128.414818 
L 60.192656 128.354943 
L 60.8175 127.706481 
L 61.413281 126.897808 
L 62.110781 125.861032 
L 62.546719 125.604618 
L 63.011719 125.2675 
L 63.345938 125.099936 
L 64.145156 124.80459 
L 64.740938 124.590157 
L 65.264063 124.507683 
L 66.382969 124.311724 
L 66.382969 124.311724 
" clip-path="url(#pa6cf91f17a)" style="fill: none; stroke: #000000; stroke-linecap: square"/>
   </g>
   <g id="line2d_37">
    <path d="M 66.3975 125.91589 
L 66.673594 126.538725 
L 67.109531 128.253921 
L 67.705313 132.053224 
L 68.664375 138.328673 
L 69.143906 139.982094 
L 69.463594 140.386524 
L 69.739688 140.43564 
L 70.146563 140.205351 
L 70.974844 139.804195 
L 71.948438 139.919685 
L 73.387031 140.905097 
L 73.634063 140.868142 
L 73.808438 140.6695 
L 74.171719 139.910827 
L 74.549531 138.567287 
L 75.217969 135.183429 
L 76.075313 131.054079 
L 76.467656 130.029421 
L 76.961719 129.293953 
L 77.383125 129.039338 
L 78.284063 128.742424 
L 78.690938 128.620587 
L 79.272188 128.548263 
L 80.144063 128.320054 
L 80.914219 128.347904 
L 80.914219 128.347904 
" clip-path="url(#pa6cf91f17a)" style="fill: none; stroke: #000000; stroke-linecap: square"/>
   </g>
   <g id="patch_22">
    <path d="M 46.86625 130.531112 
L 46.86625 125.867666 
" style="fill: none; stroke: #000000; stroke-linejoin: miter; stroke-linecap: square"/>
   </g>
   <g id="patch_23">
    <path d="M 51.86625 147.56 
L 80.92875 147.56 
" style="fill: none; stroke: #000000; stroke-linejoin: miter; stroke-linecap: square"/>
   </g>
  </g>
  <g id="text_12">
   <text style="font-size: 7px; font-family: 'Arial', sans-serif, serif; text-anchor: middle" x="44.92875" y="12.210469" transform="rotate(-0 44.92875 12.210469)">Glutamate trace fits</text>
  </g>
 </g>
 <defs>
  <clipPath id="p11bbdf488d">
   <rect x="11.17875" y="31.68" width="29.0625" height="19.117241"/>
  </clipPath>
  <clipPath id="pd68b700a83">
   <rect x="51.86625" y="31.68" width="29.0625" height="19.117241"/>
  </clipPath>
  <clipPath id="pd6a084fd88">
   <rect x="11.17875" y="54.62069" width="29.0625" height="19.117241"/>
  </clipPath>
  <clipPath id="p1db25ee7fc">
   <rect x="51.86625" y="54.62069" width="29.0625" height="19.117241"/>
  </clipPath>
  <clipPath id="p8077ac94fb">
   <rect x="11.17875" y="77.561379" width="29.0625" height="19.117241"/>
  </clipPath>
  <clipPath id="p89abfd0d4f">
   <rect x="51.86625" y="77.561379" width="29.0625" height="19.117241"/>
  </clipPath>
  <clipPath id="p422deb6f9a">
   <rect x="11.17875" y="100.502069" width="29.0625" height="19.117241"/>
  </clipPath>
  <clipPath id="p06acddd55a">
   <rect x="51.86625" y="100.502069" width="29.0625" height="19.117241"/>
  </clipPath>
  <clipPath id="pf6d50a38f0">
   <rect x="11.17875" y="123.442759" width="29.0625" height="19.117241"/>
  </clipPath>
  <clipPath id="pa6cf91f17a">
   <rect x="51.86625" y="123.442759" width="29.0625" height="19.117241"/>
  </clipPath>
 </defs>
</svg>
