<?xml version="1.0" encoding="utf-8" standalone="no"?>
<!DOCTYPE svg PUBLIC "-//W3C//DTD SVG 1.1//EN"
  "http://www.w3.org/Graphics/SVG/1.1/DTD/svg11.dtd">
<svg xmlns:xlink="http://www.w3.org/1999/xlink" width="181.8pt" height="78.781092pt" viewBox="0 0 181.8 78.781092" xmlns="http://www.w3.org/2000/svg" version="1.1">
 <metadata>
  <rdf:RDF xmlns:dc="http://purl.org/dc/elements/1.1/" xmlns:cc="http://creativecommons.org/ns#" xmlns:rdf="http://www.w3.org/1999/02/22-rdf-syntax-ns#">
   <cc:Work>
    <dc:type rdf:resource="http://purl.org/dc/dcmitype/StillImage"/>
    <dc:date>2025-10-28T10:52:22.685256</dc:date>
    <dc:format>image/svg+xml</dc:format>
    <dc:creator>
     <cc:Agent>
      <dc:title>Matplotlib v3.10.3, https://matplotlib.org/</dc:title>
     </cc:Agent>
    </dc:creator>
   </cc:Work>
  </rdf:RDF>
 </metadata>
 <defs>
  <style type="text/css">*{stroke-linejoin: round; stroke-linecap: butt}</style>
 </defs>
 <g id="figure_1">
  <g id="patch_1">
   <path d="M 0 78.781092 
L 181.8 78.781092 
L 181.8 0 
L 0 0 
L 0 78.781092 
z
" style="fill: none"/>
  </g>
  <g id="axes_1">
   <g id="line2d_1">
    <path d="M 9.597823 25.586604 
L 9.675752 20.188474 
L 9.709322 21.803119 
L 9.755181 23.989773 
L 9.804936 20.749352 
L 9.815427 20.443551 
L 9.858288 23.921857 
L 9.879269 24.956575 
L 9.935618 20.828714 
L 9.970087 18.986292 
L 10.023439 22.899918 
L 10.035428 23.319889 
L 10.079488 19.265252 
L 10.105565 17.836642 
L 10.168508 21.544381 
L 10.317474 25.594478 
L 10.327365 25.257859 
L 10.481126 20.77776 
L 10.49911 21.530988 
L 10.533879 23.752068 
L 10.586631 21.22437 
L 10.627394 22.859182 
L 10.652572 23.622568 
L 10.695433 20.717656 
L 10.720311 19.197039 
L 10.781455 23.294658 
L 10.913636 25.617436 
L 10.832409 22.87003 
L 10.924726 24.095978 
L 10.970285 17.847603 
L 11.044918 22.321195 
L 11.047316 22.322081 
L 11.065299 22.165591 
L 11.114455 20.51241 
L 11.158216 22.487194 
L 11.173502 22.77671 
L 11.25293 21.876188 
L 11.312576 19.893601 
L 11.370724 21.601279 
L 11.464839 24.861579 
L 11.561652 24.281435 
L 11.618001 22.320826 
L 11.673751 24.247628 
L 11.676748 24.261811 
L 11.698029 23.446316 
L 11.744787 20.348787 
L 11.799937 24.106085 
L 11.820019 25.597415 
L 11.890156 22.009214 
L 11.916532 20.834286 
L 11.968085 23.201371 
L 12.015443 20.872393 
L 12.016042 20.871742 
L 12.025034 21.079739 
L 12.150021 25.596025 
L 12.193482 23.658636 
L 12.218959 23.10455 
L 12.276507 24.090089 
L 12.303783 23.690404 
L 12.49531 18.573958 
L 12.537272 19.944408 
L 12.598417 24.87887 
L 12.722805 22.65532 
L 12.799536 21.841351 
L 12.828909 22.867756 
L 12.858283 24.172875 
L 12.918828 21.495483 
L 12.943106 21.132172 
L 12.986567 22.780651 
L 13.021036 24.234239 
L 13.074388 21.245109 
L 13.086677 20.942448 
L 13.128639 23.864395 
L 13.154416 25.497257 
L 13.205969 20.400119 
L 13.225452 19.437807 
L 13.2827 22.722276 
L 13.301283 21.896098 
L 13.343245 19.12669 
L 13.407387 22.280439 
L 13.412783 22.310658 
L 13.452946 21.520355 
L 13.461938 21.451571 
L 13.500603 22.457747 
L 13.522783 22.825131 
L 13.593819 21.905087 
L 13.768262 20.061263 
L 13.791042 21.030599 
L 13.939707 24.978218 
L 13.946002 24.91674 
L 14.078782 21.740499 
L 14.121044 23.684309 
L 14.131834 23.960675 
L 14.172897 20.908974 
L 14.274206 19.940757 
L 14.226849 23.553068 
L 14.287993 20.644441 
L 14.426768 25.10319 
L 14.440556 24.686004 
L 14.582628 20.531473 
L 14.609903 21.152914 
L 14.618296 21.250084 
L 14.656961 19.787221 
L 14.662356 19.723081 
L 14.69143 21.491885 
L 14.832902 25.593751 
L 14.843692 25.589302 
L 14.856281 25.589499 
L 14.860177 25.486829 
L 15.072986 19.349501 
L 15.094866 19.630414 
L 15.246529 25.140513 
L 15.31157 22.226709 
L 15.330154 21.730971 
L 15.381707 24.168501 
L 15.388901 24.235442 
L 15.448847 23.34254 
L 15.517784 20.561195 
L 15.563643 23.207326 
L 15.660456 25.502926 
L 15.70062 25.48234 
L 15.902937 25.466042 
L 16.128334 25.440659 
L 16.145418 25.42799 
L 16.185582 25.564531 
L 16.23294 25.587465 
L 16.272804 25.434778 
L 16.281496 25.435642 
L 16.32166 25.539387 
L 16.322559 25.540296 
L 16.431361 25.5668 
L 16.366319 25.482966 
L 16.452342 25.508723 
L 16.501497 25.402128 
L 16.56564 25.512401 
L 16.599809 25.555449 
L 16.662452 25.455648 
L 16.819511 25.429886 
L 17.203764 25.54129 
L 17.30777 25.468671 
L 17.347335 25.526905 
L 17.365918 25.527236 
L 17.408779 25.446164 
L 17.421368 25.443842 
L 17.670144 25.560379 
L 17.705212 25.501631 
L 17.841289 25.504251 
L 17.846984 25.511 
L 17.894641 25.578014 
L 17.9405 25.451616 
L 17.964478 25.417859 
L 18.014833 25.574996 
L 18.056195 25.587069 
L 18.092762 25.435335 
L 18.120637 25.380968 
L 18.187177 25.514514 
L 18.222845 25.579252 
L 18.272001 25.424133 
L 18.288186 25.404368 
L 18.345435 25.544801 
L 18.369713 25.549591 
L 18.443147 25.489864 
L 18.589415 25.490762 
L 18.6056 20.324264 
L 18.700614 21.087587 
L 18.723394 20.19103 
L 18.766855 24.005143 
L 18.785138 25.601031 
L 18.856174 21.239064 
L 18.905929 20.61903 
L 18.941297 22.017229 
L 19.024622 23.665042 
L 19.058192 22.403434 
L 19.189474 19.739398 
L 19.129827 24.304076 
L 19.20446 20.222016 
L 19.350728 23.981114 
L 19.368112 23.220757 
L 19.412772 19.916181 
L 19.472718 23.714421 
L 19.473018 23.714239 
L 19.483209 23.427784 
L 19.528168 20.538768 
L 19.578223 24.270647 
L 19.589313 24.584892 
L 19.639068 21.498442 
L 19.672038 19.764419 
L 19.719396 23.910517 
L 19.73648 24.780041 
L 19.790432 21.747418 
L 19.817108 22.64226 
L 19.834792 23.062952 
L 19.890841 21.466975 
L 19.903729 21.604203 
L 20.007436 23.678538 
L 20.041605 22.129328 
L 20.075175 20.632447 
L 20.133622 23.473137 
L 20.151006 23.811328 
L 20.218146 22.457561 
L 20.2691 21.627597 
L 20.295176 22.694561 
L 20.322752 23.966511 
L 20.380899 21.483409 
L 20.391989 21.695959 
L 20.43515 24.096606 
L 20.472916 20.572022 
L 20.495396 18.880548 
L 20.553543 24.085189 
L 20.55714 24.042079 
L 20.610192 19.8901 
L 20.66804 24.037364 
L 20.685125 24.48197 
L 20.739676 22.008227 
L 20.749866 21.826347 
L 20.79003 24.030552 
L 20.807415 24.671963 
L 20.853873 20.915 
L 20.882047 19.475914 
L 20.937797 23.548133 
L 20.970168 25.483829 
L 21.040604 22.692907 
L 21.047198 22.646868 
L 21.086163 23.573547 
L 21.099052 23.734629 
L 21.148507 22.433779 
L 21.159597 22.32574 
L 21.194366 23.629146 
L 21.234829 25.363679 
L 21.291478 22.715746 
L 21.419463 18.570932 
L 21.362214 23.053638 
L 21.438645 19.510977 
L 21.53366 23.307457 
L 21.573823 21.558039 
L 21.586712 20.751759 
L 21.587012 24.633806 
L 21.64426 24.420348 
L 21.687721 24.038657 
L 21.73298 24.607168 
L 21.775542 24.941195 
L 21.86606 24.927955 
L 21.872354 24.950541 
L 21.89933 24.409326 
L 21.942191 23.001822 
L 22.004835 24.41437 
L 22.010829 24.392834 
L 22.090258 23.648746 
L 22.125926 24.360644 
L 22.173882 25.58732 
L 22.248515 24.835425 
L 22.280886 24.35221 
L 22.360314 24.810668 
L 22.411568 25.277597 
L 22.461623 24.720624 
L 22.510179 23.414604 
L 22.562931 24.963771 
L 22.569226 25.001334 
L 22.612087 24.218056 
L 22.61958 24.179926 
L 22.663341 24.823629 
L 22.694813 24.999823 
L 22.744867 24.446876 
L 22.835985 23.593097 
L 22.877648 24.122154 
L 22.915713 24.419719 
L 22.996041 24.237503 
L 23.038603 24.026135 
L 23.088957 24.339982 
L 23.106641 24.410588 
L 23.158794 24.04192 
L 23.171383 24.015869 
L 23.208849 24.313494 
L 23.273291 25.18735 
L 23.319449 24.302777 
L 23.426753 24.089474 
L 23.375798 24.84446 
L 23.439041 24.182721 
L 23.536154 25.593733 
L 23.568824 24.462132 
L 23.593702 24.125804 
L 23.656645 25.098709 
L 23.674629 25.219222 
L 23.722886 24.943559 
L 23.763349 25.037696 
L 23.829889 24.729919 
L 23.880843 24.203921 
L 23.9282 24.822036 
L 24.079864 25.574584 
L 24.00673 24.623566 
L 24.090654 25.512207 
L 24.235124 24.545662 
L 24.265996 24.768835 
L 24.319348 25.393316 
L 24.352318 24.490075 
L 24.389185 23.046006 
L 24.450629 25.16583 
L 24.453926 25.176366 
L 24.484199 24.684788 
L 24.508177 24.417073 
L 24.554336 24.69634 
L 24.584009 24.634477 
L 24.634364 25.528698 
L 24.695209 25.490375 
L 24.86066 25.493626 
L 25.117228 25.459258 
L 25.199654 25.561036 
L 25.255104 25.45095 
L 25.43644 25.443233 
L 25.438538 25.44594 
L 25.667532 25.585926 
L 25.674126 25.576009 
L 25.819195 25.468167 
L 25.843773 25.491928 
L 25.90252 25.519434 
L 25.953174 25.449378 
L 26.057181 25.441604 
L 26.083557 25.479773 
L 26.178271 25.536055 
L 26.22383 25.482341 
L 26.667131 25.474875 
L 26.709392 25.487661 
L 26.747458 25.553886 
L 26.838576 25.536892 
L 26.855361 25.514772 
L 26.905416 25.425237 
L 26.96686 25.539994 
L 27.076861 25.527441 
L 27.090049 25.509768 
L 27.146998 25.424496 
L 27.204546 25.532984 
L 27.29986 25.471879 
L 27.581306 25.455957 
L 27.692506 25.081663 
L 27.701798 25.059074 
L 27.74316 25.384199 
L 27.758746 25.448851 
L 27.815995 25.113104 
L 27.82139 25.118926 
L 27.970056 25.448106 
L 28.000928 25.249824 
L 28.035996 25.07325 
L 28.113326 25.241981 
L 28.293164 25.587201 
L 28.313846 25.464534 
L 28.372293 24.982081 
L 28.443329 25.305529 
L 28.45262 25.308309 
L 28.480196 25.174346 
L 28.521858 24.786098 
L 28.570414 25.376242 
L 28.585101 25.443257 
L 28.636055 25.188163 
L 28.679816 25.354947 
L 28.764339 25.296388 
L 28.723576 25.251469 
L 28.769135 25.288874 
L 28.823386 25.013885 
L 28.884831 25.3005 
L 28.910308 25.286886 
L 28.934286 25.399893 
L 28.967256 25.540438 
L 29.0296 25.286032 
L 29.088047 25.117394 
L 29.125813 25.346801 
L 29.152789 25.486258 
L 29.216332 25.157901 
L 29.228021 25.154344 
L 29.275978 25.265088 
L 29.293662 25.28264 
L 29.342518 25.187729 
L 29.369194 25.202175 
L 29.385379 25.196703 
L 29.411156 25.098515 
L 29.447723 24.988544 
L 29.502274 25.209691 
L 29.568814 25.587334 
L 29.621566 25.260678 
L 29.742058 25.160472 
L 29.772031 25.226767 
L 29.911705 25.307875 
L 30.022305 25.384295 
L 30.047183 25.264695 
L 30.096938 25.0373 
L 30.16078 25.254475 
L 30.21683 25.561933 
L 30.285468 25.332484 
L 30.318738 25.465403 
L 30.359501 25.167949 
L 30.385577 25.022286 
L 30.459011 25.286545 
L 30.50517 25.273569 
L 30.534543 25.198871 
L 30.576805 25.154476 
L 30.578603 25.155613 
L 30.597187 24.112503 
L 30.689503 25.309256 
L 30.691901 25.306948 
L 30.703291 25.196244 
L 30.836671 23.895359 
L 30.864546 24.359533 
L 30.900513 25.003164 
L 30.986236 24.663844 
L 31.116618 23.646469 
L 31.138798 24.051931 
L 31.190651 25.549899 
L 31.264984 24.563395 
L 31.30365 24.381046 
L 31.344713 24.743372 
L 31.355203 24.790275 
L 31.395667 24.231279 
L 31.421443 23.956558 
L 31.466703 24.943781 
L 31.481389 25.141687 
L 31.537139 23.936618 
L 31.548229 23.903119 
L 31.600682 24.266715 
L 31.710982 25.58975 
L 31.741255 24.853017 
L 31.820683 23.893831 
L 31.862645 24.550963 
L 31.964853 25.097233 
L 31.994826 24.98283 
L 31.999322 24.98006 
L 32.027197 25.140472 
L 32.040685 25.190164 
L 32.083247 24.767493 
L 32.18995 24.470694 
L 32.210332 24.597667 
L 32.238806 24.870373 
L 32.27897 24.099571 
L 32.29036 23.971129 
L 32.329624 25.320535 
L 32.339515 25.592748 
L 32.426737 24.711158 
L 32.443522 24.621155 
L 32.48938 25.152224 
L 32.491778 25.155502 
L 32.509462 24.872882 
L 32.554122 23.355063 
L 32.615267 25.032505 
L 32.625158 25.061886 
L 32.687202 24.764954 
L 32.759437 23.732911 
L 32.823879 24.372675 
L 32.93358 24.8585 
L 32.969847 24.665478 
L 32.974343 24.660111 
L 33.003417 24.887743 
L 33.012708 24.927925 
L 33.048976 24.374603 
L 33.118813 23.693742 
L 33.16617 24.243111 
L 33.300749 25.590923 
L 33.205734 24.180592 
L 33.329223 24.792483 
L 33.383174 23.705119 
L 33.445518 24.616414 
L 33.461104 24.505932 
L 33.692795 21.502795 
L 33.535137 24.777429 
L 33.725765 22.650046 
L 33.745847 23.131712 
L 33.829172 22.320397 
L 33.908601 20.648274 
L 33.961952 21.621948 
L 33.982934 21.090981 
L 34.003315 20.54259 
L 34.040182 23.233261 
L 34.065959 25.600468 
L 34.160973 24.434692 
L 34.221219 19.647441 
L 34.340811 20.63682 
L 34.36359 21.552776 
L 34.475389 22.797173 
L 34.488278 22.411157 
L 34.526343 19.891477 
L 34.571303 24.070912 
L 34.594982 25.294382 
L 34.665418 22.363961 
L 34.790405 20.072545 
L 34.812286 20.775142 
L 34.913295 25.464658 
L 34.961251 22.864868 
L 35.094032 21.630037 
L 35.114113 21.477274 
L 35.137792 22.197266 
L 35.183051 25.397974 
L 35.231608 21.028762 
L 35.268774 18.343261 
L 35.326022 23.111997 
L 35.361091 25.324248 
L 35.433326 22.683358 
L 35.443816 22.531102 
L 35.479784 24.401874 
L 35.497468 25.155202 
L 35.547223 22.025533 
L 35.59458 24.67473 
L 35.624253 22.039303 
L 35.773219 17.2792 
L 35.697088 24.55045 
L 35.779513 17.399696 
L 35.924882 22.951036 
L 35.96055 20.125772 
L 35.980332 19.006156 
L 36.032485 24.048523 
L 36.047772 24.710459 
L 36.10442 22.124445 
L 36.122704 22.322787 
L 36.139789 22.468101 
L 36.184748 21.618025 
L 36.206928 21.335329 
L 36.250988 22.615692 
L 36.264476 22.846633 
L 36.313632 21.603789 
L 36.352597 22.312134 
L 36.444314 23.359951 
L 36.474587 22.44935 
L 36.487475 22.182394 
L 36.532135 24.415015 
L 36.540227 24.554861 
L 36.580391 22.346512 
L 36.58159 22.345376 
L 36.595677 22.558488 
L 36.623552 23.131211 
L 36.674506 21.708969 
L 36.6811 21.649816 
L 36.711373 22.951535 
L 36.735951 24.084994 
L 36.782109 20.1039 
L 36.802791 18.929599 
L 36.857042 23.813861 
L 36.866933 24.106613 
L 36.920884 21.098261 
L 37.006607 20.183252 
L 36.959849 21.316803 
L 37.032084 21.086553 
L 37.064455 22.572734 
L 37.121104 19.713315 
L 37.122602 19.709626 
L 37.139987 20.141379 
L 37.245492 25.607063 
L 37.283257 21.560937 
L 37.30274 20.684984 
L 37.360887 23.020302 
L 37.384266 22.446237 
L 37.412141 21.672363 
L 37.459798 22.965082 
L 37.506556 21.982848 
L 37.642034 23.879731 
L 37.585085 21.733535 
L 37.669609 22.57806 
L 37.705577 20.537705 
L 37.765223 23.812673 
L 37.773615 23.912018 
L 37.817076 22.41018 
L 37.914189 21.788586 
L 37.86803 23.520344 
L 37.930674 22.328787 
L 38.011601 24.448213 
L 38.051165 22.906622 
L 38.181248 21.433929 
L 38.121601 24.997804 
L 38.185444 21.467875 
L 38.218114 22.425644 
L 38.248387 20.714064 
L 38.268169 19.749386 
L 38.321821 22.680186 
L 38.346099 21.817359 
L 38.36768 21.069659 
L 38.415636 24.022317 
L 38.430623 24.34135 
L 38.503457 22.979497 
L 38.54482 21.386082 
L 38.586482 24.081588 
L 38.607164 25.599501 
L 38.687791 23.147968 
L 38.818773 20.271214 
L 38.746538 24.051949 
L 38.845149 20.843302 
L 38.956648 23.732015 
L 38.99921 22.435325 
L 39.057657 20.57092 
L 39.097821 22.926227 
L 39.119402 23.992511 
L 39.170056 21.283478 
L 39.207522 22.825828 
L 39.21052 22.846345 
L 39.233299 21.6832 
L 39.268667 19.563653 
L 39.33251 22.605019 
L 39.333708 22.603645 
L 39.396951 22.17348 
L 39.452401 18.559406 
L 39.508151 22.15066 
L 39.661912 25.521587 
L 39.66521 25.521202 
L 40.281154 25.494643 
L 40.3411 25.560537 
L 40.390256 25.46097 
L 40.417531 25.431257 
L 40.469684 25.556699 
L 40.504752 25.586262 
L 40.582682 25.542452 
L 40.748133 25.353363 
L 40.797588 25.516077 
L 40.916881 25.511179 
L 41.038571 25.586725 
L 41.076037 25.481872 
L 41.112305 25.408564 
L 41.176746 25.534614 
L 41.244485 25.442794 
L 41.348192 25.518662 
L 41.426421 25.527803 
L 41.460591 25.456122 
L 41.490264 25.424331 
L 41.544515 25.538294 
L 41.596968 25.561855 
L 41.644325 25.489986 
L 41.668903 25.474479 
L 41.71596 25.535859 
L 41.750729 25.528289 
L 41.965935 25.489662 
L 41.980322 25.515277 
L 42.119696 25.559204 
L 42.128089 25.551089 
L 42.207517 25.385526 
L 42.265964 25.550549 
L 42.387355 25.534586 
L 42.391251 25.530781 
L 42.545612 25.521232 
L 42.567792 25.503944 
L 42.568092 19.036553 
L 42.678992 21.189907 
L 42.821663 19.930827 
L 42.731744 22.841282 
L 42.82466 19.942978 
L 42.945152 22.005043 
L 43.048259 25.126703 
L 43.097115 23.482902 
L 43.114799 23.101642 
L 43.16875 25.051922 
L 43.175944 25.124381 
L 43.211911 23.751713 
L 43.323111 22.700216 
L 43.270958 24.303115 
L 43.339296 22.961644 
L 43.364773 23.512974 
L 43.410632 21.84975 
L 43.420823 21.718248 
L 43.462485 23.325726 
L 43.497853 24.686783 
L 43.547609 21.779971 
L 43.572486 20.434263 
L 43.624939 24.82431 
L 43.647419 25.593723 
L 43.692378 21.069034 
L 43.717256 19.586783 
L 43.772706 21.871562 
L 43.804477 20.957795 
L 43.830553 20.27934 
L 43.886903 22.128428 
L 43.887502 22.128099 
L 43.90099 21.880302 
L 43.927966 21.068016 
L 43.965732 23.400111 
L 43.985514 24.235399 
L 44.054751 21.680729 
L 44.080228 21.429506 
L 44.123389 22.347539 
L 44.184834 24.425433 
L 44.274753 23.935968 
L 44.341892 19.437733 
L 44.401539 23.156577 
L 44.408133 23.253163 
L 44.448896 21.336894 
L 44.456389 21.206404 
L 44.490558 23.592145 
L 44.516035 25.171292 
L 44.568788 22.139752 
L 44.603257 23.768631 
L 44.682385 24.75101 
L 44.71056 23.59824 
L 44.773203 17.386583 
L 44.828653 22.969127 
L 44.950943 25.606301 
L 44.961733 24.625968 
L 45.014186 19.222081 
L 45.09811 21.270877 
L 45.113397 21.383919 
L 45.152062 20.634776 
L 45.166149 20.497676 
L 45.206013 21.688631 
L 45.256068 24.681728 
L 45.30882 21.203781 
L 45.393644 20.219045 
L 45.350183 21.667156 
L 45.416124 21.330934 
L 45.446696 23.082084 
L 45.504244 19.412646 
L 45.539912 17.695568 
L 45.565089 19.006077 
L 45.583073 25.600262 
L 45.676289 21.725215 
L 45.699668 21.06653 
L 45.747924 23.684142 
L 45.766807 24.395626 
L 45.835446 22.079212 
L 45.851931 21.881407 
L 45.885201 23.237615 
L 45.913375 24.43976 
L 45.980814 22.180907 
L 46.060543 19.638023 
L 46.07433 19.136594 
L 46.115093 23.318112 
L 46.137873 24.910562 
L 46.197519 21.861093 
L 46.216702 22.116322 
L 46.337493 22.48922 
L 46.344986 22.430681 
L 46.380054 19.852857 
L 46.407929 17.931444 
L 46.461281 23.109555 
L 46.478965 23.829121 
L 46.567086 22.693945 
L 46.60635 21.021918 
L 46.649811 23.876895 
L 46.762809 25.61089 
L 46.718749 21.099441 
L 46.782591 25.591897 
L 46.804172 25.603008 
L 46.808668 25.470874 
L 46.93935 19.643475 
L 46.97322 21.883998 
L 46.995699 22.976282 
L 47.046653 21.448307 
L 47.081722 21.658766 
L 47.099106 21.621581 
L 47.11709 21.788046 
L 47.23908 22.842407 
L 47.257064 22.327404 
L 47.298726 19.961665 
L 47.348481 23.43256 
L 47.373958 24.580492 
L 47.431806 21.796856 
L 47.440798 21.918565 
L 47.566085 24.177846 
L 47.590363 22.881383 
L 47.631126 19.857086 
L 47.694669 23.509848 
L 47.724342 24.416088 
L 47.766904 21.701809 
L 47.789084 20.75988 
L 47.837041 22.231062 
L 47.887395 20.949975 
L 47.942246 20.605358 
L 47.980012 21.097304 
L 48.037859 23.649755 
L 48.076525 20.725971 
L 48.102901 18.984293 
L 48.172438 22.398157 
L 48.220395 25.19479 
L 48.273747 21.917005 
L 48.278542 21.868734 
L 48.311213 23.360699 
L 48.327998 23.872377 
L 48.382549 21.171899 
L 48.401132 20.811875 
L 48.445192 22.935119 
L 48.466473 23.813011 
L 48.519225 20.356366 
L 48.521623 20.336301 
L 48.543204 21.625918 
L 48.601951 25.481075 
L 48.687074 25.284866 
L 48.717646 25.501225 
L 48.776993 25.077837 
L 48.78029 25.080255 
L 48.823451 25.365888 
L 48.903779 25.424041 
L 48.927158 25.317959 
L 48.970918 24.921613 
L 49.074625 24.987046 
L 49.098303 25.1082 
L 49.175034 25.527606 
L 49.23528 25.313198 
L 49.371057 25.016288 
L 49.393237 25.141767 
L 49.452884 25.588143 
L 49.51193 25.221284 
L 49.653403 25.129576 
L 49.673485 25.225324 
L 49.721142 25.539846 
L 49.784684 25.22167 
L 49.808063 25.153565 
L 49.861715 25.413127 
L 49.881497 25.453872 
L 49.950735 25.306318 
L 50.090109 25.116288 
L 50.105695 25.173507 
L 50.153052 25.534709 
L 50.198911 25.044845 
L 50.218693 24.901749 
L 50.271745 25.546025 
L 50.282835 25.587551 
L 50.331691 25.121697 
L 50.349975 25.050489 
L 50.401828 25.241508 
L 50.44379 25.119205 
L 50.464771 25.098008 
L 50.515126 25.238585 
L 50.659296 25.471067 
L 50.602946 25.210284 
L 50.669486 25.453181 
L 50.804665 25.079701 
L 50.85352 25.250681 
L 50.886491 25.429306 
L 50.946736 25.110127 
L 50.982704 25.063161 
L 51.017772 25.230559 
L 51.066329 25.525025 
L 51.123277 25.178941 
L 51.136465 25.149661 
L 51.196711 25.361132 
L 51.240472 25.373911 
L 51.276439 25.285052 
L 51.354968 24.984499 
L 51.39723 25.256851 
L 51.434397 25.5675 
L 51.502735 25.185569 
L 51.531209 25.139209 
L 51.559684 25.245733 
L 51.559983 25.439624 
L 51.640311 20.854428 
L 51.665189 21.668989 
L 51.706551 25.60405 
L 51.792274 22.768503 
L 51.920858 18.341474 
L 51.956526 20.467368 
L 52.005382 23.980774 
L 52.082712 22.078737 
L 52.208599 24.270245 
L 52.231078 23.777514 
L 52.285329 22.115924 
L 52.321896 24.467077 
L 52.348273 25.59821 
L 52.391434 20.470353 
L 52.409118 19.374305 
L 52.46217 22.84369 
L 52.490045 21.924734 
L 52.497538 21.815817 
L 52.530808 23.841201 
L 52.559882 25.33113 
L 52.619828 21.874741 
L 52.677076 19.512879 
L 52.724733 22.271783 
L 52.77299 24.235083 
L 52.843726 22.934401 
L 52.880293 22.656364 
L 52.942936 23.096722 
L 52.978304 23.454472 
L 53.032855 22.769114 
L 53.034354 22.7689 
L 53.047542 22.908583 
L 53.110485 24.274905 
L 53.148551 22.72688 
L 53.259151 20.42143 
L 53.208797 22.881811 
L 53.281331 21.31039 
L 53.297217 21.872352 
L 53.33858 18.246205 
L 53.351168 17.673092 
L 53.395828 22.817468 
L 53.422804 24.711067 
L 53.507327 22.870833 
L 53.562178 18.871918 
L 53.631416 22.140245 
L 53.667683 20.338903 
L 53.712343 23.51031 
L 53.738119 24.390227 
L 53.809155 22.4719 
L 53.837929 20.983771 
L 53.886486 24.976877 
L 53.893379 25.165547 
L 53.927548 21.388995 
L 53.953925 19.038674 
L 54.006078 21.603339 
L 54.039348 21.230379 
L 54.086405 23.450563 
L 54.120874 20.780772 
L 54.146651 19.124703 
L 54.222183 21.858205 
L 54.255753 22.501893 
L 54.284826 21.312815 
L 54.30341 20.568066 
L 54.345971 24.436735 
L 54.361257 25.598589 
L 54.431694 21.583774 
L 54.467961 20.156322 
L 54.519814 23.307716 
L 54.645401 25.584795 
L 54.653494 25.581332 
L 54.942134 25.491478 
L 55.266141 25.58023 
L 55.287722 25.490044 
L 55.313199 25.436191 
L 55.36745 25.535558 
L 55.396824 25.511133 
L 55.449576 25.473375 
L 55.494535 25.565121 
L 55.558678 25.586789 
L 55.586253 25.500098 
L 55.694455 25.430186 
L 55.714237 25.467685 
L 55.857208 25.544454 
L 56.05533 25.580218 
L 56.075711 25.513204 
L 56.206693 25.463134 
L 56.231271 25.448384 
L 56.281326 25.550508 
L 56.406913 25.553625 
L 56.330781 25.490814 
L 56.421 25.522823 
L 56.458166 25.439315 
L 56.548385 25.491367 
L 56.840921 25.441048 
L 56.862802 25.428478 
L 56.905363 25.545194 
L 56.948225 25.586767 
L 56.999179 25.496602 
L 57.006672 25.495385 
L 57.554278 25.521579 
L 57.554278 25.521579 
" clip-path="url(#p8640934f98)" style="fill: none; stroke: #000000; stroke-width: 0.5; stroke-linecap: square"/>
   </g>
   <g id="line2d_2">
    <path d="M 9.597823 27.285083 
L 15.592417 27.285083 
" clip-path="url(#p8640934f98)" style="fill: none; stroke: #000000; stroke-width: 0.5; stroke-linecap: square"/>
   </g>
   <g id="text_1">
    <text style="font-size: 5px; font-family: 'Arial', sans-serif, serif; text-anchor: middle" x="12.744985" y="31.697813" transform="rotate(-0 12.744985 31.697813)">2 s</text>
   </g>
   <g id="text_2">
    <text style="font-size: 5px; font-family: 'Arial', sans-serif, serif; text-anchor: middle" x="33.57605" y="10.778906" transform="rotate(-0 33.57605 10.778906)">Light stimuli</text>
   </g>
  </g>
  <g id="axes_2"/>
  <g id="axes_3">
   <g id="line2d_3">
    <path d="M 124.245722 21.86876 
L 124.250218 24.269881 
L 124.357221 22.247468 
L 124.565234 17.2792 
L 124.583517 17.717233 
L 124.649758 17.900996 
L 124.612591 17.400231 
L 124.660248 17.483134 
L 124.664744 17.398273 
L 124.750167 18.285077 
L 124.750767 18.285774 
L 124.75796 18.020659 
L 124.861966 17.370287 
L 124.844582 18.044331 
L 124.874855 17.719629 
L 125.00164 18.694396 
L 124.965073 17.624049 
L 125.004638 18.620948 
L 125.018125 17.986583 
L 125.050496 18.817348 
L 125.124829 18.112013 
L 125.136219 18.368283 
L 125.241724 19.120277 
L 125.165293 18.10004 
L 125.255511 18.685498 
L 125.362815 18.299089 
L 125.336438 18.992527 
L 125.370308 18.456883 
L 125.397583 19.422756 
L 125.502489 19.113517 
L 125.518974 18.33468 
L 125.547748 19.177301 
L 125.620882 18.534893 
L 125.650555 19.386558 
L 125.760256 18.707986 
L 125.812109 18.257936 
L 125.847478 19.074971 
L 125.871456 18.696999 
L 125.896933 19.260662 
L 125.961675 18.425239 
L 126.000639 19.038712 
L 126.013528 18.618434 
L 126.100449 19.35503 
L 126.120831 18.650885 
L 126.248216 19.486365 
L 126.21045 18.424142 
L 126.253611 19.188553 
L 126.313857 18.716591 
L 126.349225 19.568677 
L 126.364511 19.190468 
L 126.394484 20.276255 
L 126.461324 19.12093 
L 126.496392 19.798005 
L 126.517373 19.134094 
L 126.548845 20.656048 
L 126.613287 19.571487 
L 126.62108 19.725712 
L 126.639363 20.160818 
L 126.666639 19.177574 
L 126.734977 19.845084 
L 126.735577 19.845617 
L 126.748465 19.653594 
L 126.76555 18.990718 
L 126.846776 20.308298 
L 126.945987 20.602901 
L 126.86476 19.998474 
L 126.956777 20.289715 
L 127.065879 19.836706 
L 126.99754 20.807947 
L 127.07517 19.994097 
L 127.091656 20.263102 
L 127.126424 19.510895 
L 127.1534 19.534246 
L 127.216943 18.911617 
L 127.24152 20.541724 
L 127.242719 21.595913 
L 127.258905 18.447057 
L 127.351222 19.490451 
L 127.362312 18.988381 
L 127.445337 20.044285 
L 127.466917 19.21425 
L 127.486999 19.779641 
L 127.549343 20.123615 
L 127.510678 19.527586 
L 127.599398 19.845043 
L 127.713295 19.225845 
L 127.646755 19.917837 
L 127.720788 19.308087 
L 127.89613 20.343435 
L 127.900926 20.260928 
L 127.965967 19.491214 
L 127.994442 20.366549 
L 128.027712 19.638768 
L 128.031608 19.654172 
L 128.058584 19.122752 
L 128.063379 19.068524 
L 128.09635 19.793611 
L 128.168285 19.156658 
L 128.29597 20.177731 
L 128.212645 19.091379 
L 128.336433 19.655262 
L 128.410466 19.218066 
L 128.435644 19.796792 
L 128.496489 20.15194 
L 128.512075 19.329996 
L 128.549541 19.886758 
L 128.565427 19.259964 
L 128.649351 20.00511 
L 128.662539 19.758245 
L 128.663438 19.757495 
L 128.671231 19.954271 
L 128.741368 21.044854 
L 128.796818 20.72491 
L 128.860061 19.633438 
L 128.923604 19.999964 
L 129.047092 20.501979 
L 129.012923 19.679624 
L 129.050689 20.427858 
L 129.113033 19.726711 
L 129.143006 20.642744 
L 129.167284 20.160092 
L 129.245513 20.819042 
L 129.210145 20.080737 
L 129.284179 20.237024 
L 129.360909 19.323351 
L 129.389683 20.358004 
L 129.39388 20.422947 
L 129.459221 19.570751 
L 129.499684 20.345339 
L 129.558131 19.526649 
L 129.596797 20.701237 
L 129.618977 19.931499 
L 129.640857 20.721273 
L 129.660339 19.918096 
L 129.749958 20.296584 
L 129.809904 19.393488 
L 129.878543 19.562566 
L 129.985546 20.076426 
L 129.907916 19.110851 
L 130.004429 19.699344 
L 130.01492 19.591304 
L 130.040696 20.449361 
L 130.098244 20.263091 
L 130.13631 20.885024 
L 130.195357 20.033042 
L 130.255902 19.257385 
L 130.240316 21.449524 
L 130.317047 19.722721 
L 130.396176 21.392523 
L 130.462116 20.774644 
L 130.833781 24.02438 
L 130.852664 23.512029 
L 130.866751 23.349921 
L 130.940485 24.182846 
L 130.955172 23.897445 
L 130.966861 23.583782 
L 131.038796 24.682686 
L 131.039396 24.682604 
L 131.048388 24.553265 
L 131.069668 23.651061 
L 131.166181 24.317442 
L 131.257 23.84273 
L 131.185364 24.752471 
L 131.282477 24.206341 
L 131.336128 24.543163 
L 131.363703 23.917254 
L 131.390679 24.143021 
L 131.521061 22.996298 
L 131.438336 24.406398 
L 131.528555 23.32427 
L 131.588201 24.161201 
L 131.64455 23.613726 
L 131.653542 23.43026 
L 131.683515 24.103336 
L 131.73297 24.009867 
L 131.809102 23.001476 
L 131.814497 22.839704 
L 131.883135 24.284194 
L 131.901718 23.778001 
L 131.966759 23.399853 
L 131.991937 24.10032 
L 131.994634 24.086088 
L 132.119322 23.324864 
L 132.030602 24.42599 
L 132.130412 23.924483 
L 132.183464 24.331935 
L 132.218832 23.459675 
L 132.237116 23.725891 
L 132.367498 22.934814 
L 132.285372 24.014502 
L 132.378288 23.439558 
L 132.435237 23.952918 
L 132.466409 23.199028 
L 132.488589 23.417389 
L 132.50957 23.014223 
L 132.52036 22.63766 
L 132.575211 24.001181 
L 132.586001 24.481937 
L 132.664231 23.600074 
L 132.687909 24.0972 
L 132.821589 22.923597 
L 132.731969 24.196497 
L 132.83148 23.461893 
L 132.931589 23.874361 
L 132.863251 23.169532 
L 132.944478 23.550297 
L 132.96426 22.992143 
L 133.033198 24.003258 
L 133.059574 23.417594 
L 133.079356 23.822257 
L 133.133607 24.100542 
L 133.167776 23.199069 
L 133.185461 23.658995 
L 133.417451 18.375029 
L 133.242109 24.401639 
L 133.430639 18.544259 
L 133.440231 18.712401 
L 133.462411 17.940916 
L 133.502874 17.975216 
L 133.560123 17.648005 
L 133.593093 18.624314 
L 133.612875 18.031476 
L 133.695001 18.798503 
L 133.657235 17.74135 
L 133.748053 18.455544 
L 133.8068 17.844578 
L 133.841569 18.733052 
L 133.86225 18.264365 
L 133.99503 19.087196 
L 133.905411 18.05237 
L 134.005221 18.715944 
L 134.060971 18.075049 
L 134.092143 18.806341 
L 134.123015 18.567988 
L 134.177866 18.823226 
L 134.209937 18.119133 
L 134.210836 18.120999 
L 134.235114 18.892623 
L 134.291763 19.34853 
L 134.263289 18.730352 
L 134.347812 18.979714 
L 134.360401 18.497576 
L 134.390074 19.563286 
L 134.462909 18.684515 
L 134.595689 19.670641 
L 134.607079 19.183528 
L 134.70539 18.902042 
L 134.636152 19.834025 
L 134.71678 19.201646 
L 134.743755 19.848128 
L 134.8046 18.995785 
L 134.806699 18.972227 
L 134.840568 20.03556 
L 134.887326 19.634308 
L 134.940078 19.869597 
L 134.967054 19.415438 
L 134.990733 19.459448 
L 135.005419 19.079953 
L 135.042286 19.940094 
L 135.090842 19.781179 
L 135.092041 19.786225 
L 135.119916 19.401228 
L 135.154385 19.447354 
L 135.207737 19.291486 
L 135.234413 20.168591 
L 135.242206 20.420183 
L 135.307847 19.233978 
L 135.342915 20.067679 
L 135.409455 19.193093 
L 135.487085 19.465844 
L 135.538339 20.174421 
L 135.502072 19.107542 
L 135.604879 19.535733 
L 135.654634 19.400105 
L 135.685506 20.379462 
L 135.689702 20.394103 
L 135.70289 19.973006 
L 135.756242 19.554567 
L 135.734662 20.385035 
L 135.815589 19.884738 
L 135.940276 21.057391 
L 135.908205 19.607894 
L 135.952565 20.480564 
L 136.006217 19.958645 
L 136.042484 20.691402 
L 136.06976 20.112783 
L 136.090441 20.70825 
L 136.142594 19.405804 
L 136.208834 19.048489 
L 136.185156 19.93076 
L 136.231314 19.578536 
L 136.234611 21.839033 
L 136.259788 19.26448 
L 136.343713 20.112193 
L 136.485485 21.173858 
L 136.356001 19.854949 
L 136.497174 20.82848 
L 136.506166 20.466739 
L 136.594287 21.594284 
L 136.608074 20.832355 
L 136.617965 20.795042 
L 136.676413 21.35801 
L 136.73486 21.530472 
L 136.754342 20.723328 
L 136.755241 20.719963 
L 136.778321 21.275745 
L 136.819084 21.037884 
L 136.927886 21.669619 
L 136.853253 20.691031 
L 136.951265 21.379502 
L 136.95696 21.333462 
L 136.99023 22.231753 
L 137.022301 21.953828 
L 137.086443 22.342353 
L 137.057669 21.48157 
L 137.14519 22.171445 
L 137.252793 21.778638 
L 137.190149 22.516887 
L 137.277071 21.862854 
L 137.331622 21.910857 
L 137.304047 21.373861 
L 137.345409 21.5146 
L 137.357099 21.081635 
L 137.392467 22.062708 
L 137.461704 21.278929 
L 137.4668 21.25833 
L 137.481187 21.719786 
L 137.493476 21.995875 
L 137.558217 20.961986 
L 137.592087 21.729632 
L 137.656529 20.919436 
L 137.689499 21.768616 
L 137.722469 21.127254 
L 137.738055 21.503198 
L 137.759336 20.657763 
L 137.839664 21.273235 
L 137.957457 20.415111 
L 137.891817 21.602415 
L 137.971844 20.91447 
L 138.030591 21.531942 
L 138.008411 20.635954 
L 138.092935 21.527774 
L 138.156478 20.957374 
L 138.135497 21.754078 
L 138.185252 21.686245 
L 138.239803 21.876788 
L 138.208031 21.099373 
L 138.293754 21.65411 
L 138.300948 21.607017 
L 138.325825 21.918956 
L 138.333318 22.012454 
L 138.354899 21.310104 
L 138.432829 21.816857 
L 138.433128 21.817196 
L 138.443319 21.661227 
L 138.4646 21.337785 
L 138.521249 21.955233 
L 138.532339 22.140401 
L 138.603974 21.275108 
L 138.704384 21.102833 
L 138.635746 21.869088 
L 138.713376 21.304311 
L 138.829071 22.017541 
L 138.754439 21.081028 
L 138.843159 21.658594 
L 138.854848 21.444964 
L 138.942969 21.970468 
L 139.03079 22.598083 
L 139.005013 21.618277 
L 139.046675 21.88998 
L 139.156676 21.130074 
L 139.085041 22.099634 
L 139.168365 21.244703 
L 139.232208 22.269095 
L 139.231908 20.33741 
L 139.254388 20.5597 
L 139.256486 20.494739 
L 139.289756 21.843629 
L 139.339511 21.830805 
L 139.34101 21.842715 
L 139.358094 21.122882 
L 139.398258 21.199058 
L 139.406051 21.0384 
L 139.474689 22.207406 
L 139.61796 23.429753 
L 139.729459 24.8402 
L 139.785809 24.595214 
L 139.804692 24.195882 
L 139.832267 24.991263 
L 139.875128 24.980481 
L 139.927581 25.031593 
L 139.910796 24.398659 
L 139.944366 24.639928 
L 139.957854 24.629872 
L 139.981532 25.201093 
L 140.018699 24.994144 
L 140.030688 25.362655 
L 140.064557 24.394584 
L 140.133795 25.199295 
L 140.146084 24.99661 
L 140.264177 23.706503 
L 140.275267 24.290077 
L 140.387666 24.436128 
L 140.363987 23.816255 
L 140.389764 24.424331 
L 140.463198 23.761195 
L 140.486277 24.542042 
L 140.517749 24.192487 
L 140.580692 25.227384 
L 140.615161 23.719707 
L 140.632545 24.350819 
L 140.680502 24.996222 
L 140.714671 24.26219 
L 140.742246 24.337357 
L 140.812982 23.338238 
L 140.870531 23.627681 
L 140.877724 23.909126 
L 140.959251 23.306444 
L 140.983529 23.769265 
L 141.062657 23.454724 
L 141.027289 24.318861 
L 141.078243 24.059127 
L 141.128298 24.123973 
L 141.107017 23.580667 
L 141.150478 23.600112 
L 141.156772 23.487772 
L 141.220915 24.534344 
L 141.225111 24.645382 
L 141.261678 23.124991 
L 141.311133 23.52376 
L 141.324321 24.152353 
L 141.329716 24.312663 
L 141.410643 23.346366 
L 141.434322 24.101378 
L 141.562007 23.330613 
L 141.531135 24.115359 
L 141.573097 23.909779 
L 141.679801 24.462849 
L 141.604868 23.491525 
L 141.69149 24.275023 
L 141.764624 23.076397 
L 141.820374 23.473502 
L 141.87972 24.014453 
L 141.862036 23.202243 
L 141.933672 23.682337 
L 141.94686 23.385056 
L 142.0134 22.555592 
L 141.981629 23.990622 
L 142.064354 23.12506 
L 142.132692 23.96984 
L 142.195336 23.641595 
L 142.229205 22.445929 
L 142.234001 24.332494 
L 142.319724 23.183627 
L 142.354792 23.527448 
L 142.406046 22.788184 
L 142.432422 23.229192 
L 142.60147 21.538096 
L 142.61166 21.669482 
L 142.727056 21.912257 
L 142.649426 21.220689 
L 142.733351 21.871045 
L 142.802588 21.354797 
L 142.82237 21.976506 
L 142.827466 22.039005 
L 142.854142 21.251098 
L 142.93417 21.995101 
L 142.953053 21.496553 
L 143.024688 22.364179 
L 143.125397 22.914602 
L 143.097822 22.103532 
L 143.141882 22.63132 
L 143.257878 21.807812 
L 143.273763 21.898264 
L 143.274363 21.899183 
L 143.284853 21.652058 
L 143.303736 20.959952 
L 143.331312 21.966403 
L 143.408042 21.067875 
L 143.536027 21.955326 
L 143.545618 21.753631 
L 143.550414 21.726023 
L 143.567199 22.018683 
L 143.612158 21.973488 
L 143.628943 22.147056 
L 143.652922 21.661219 
L 143.726655 22.021198 
L 143.744339 21.911127 
L 143.768317 22.127144 
L 143.821969 22.503093 
L 143.802187 21.539981 
L 143.845348 21.839924 
L 143.8987 21.794148 
L 143.872623 22.51466 
L 143.926874 22.42818 
L 143.97663 22.617152 
L 143.994014 22.000277 
L 144.000908 21.821847 
L 144.029082 22.477537 
L 144.103116 22.106369 
L 144.124396 22.559351 
L 144.154669 21.822309 
L 144.18734 21.972137 
L 144.252681 21.165975 
L 144.305133 21.736442 
L 144.377668 22.402938 
L 144.443009 22.174586 
L 144.502655 21.8653 
L 144.479576 22.581225 
L 144.557806 22.109334 
L 144.579086 22.447942 
L 144.643528 21.715383 
L 144.650722 21.478109 
L 144.72985 22.516054 
L 144.73015 22.515963 
L 144.748733 22.348657 
L 144.85214 21.889522 
L 144.827263 22.533982 
L 144.868326 22.136852 
L 144.97383 22.623041 
L 144.932168 21.918967 
L 144.986719 22.337014 
L 145.052659 22.076224 
L 145.077237 22.640515 
L 145.09612 22.369976 
L 145.100616 22.335357 
L 145.125793 22.959427 
L 145.164758 22.90746 
L 145.221407 22.113948 
L 145.226503 23.224814 
L 145.226802 21.648581 
L 145.337702 21.649241 
L 145.502853 20.162799 
L 145.372771 21.676737 
L 145.515142 20.366551 
L 145.536123 21.025008 
L 145.558303 20.001863 
L 145.631737 20.605214 
L 145.752528 19.831436 
L 145.681193 20.892192 
L 145.782201 20.266933 
L 145.784599 20.277919 
L 145.802883 19.608551 
L 145.803183 19.608008 
L 145.810076 19.822293 
L 145.836153 20.801143 
L 145.93896 20.617521 
L 145.952748 20.254935 
L 146.030378 21.195134 
L 146.033974 21.173736 
L 146.052558 20.395791 
L 146.131087 21.270832 
L 146.132585 21.278403 
L 146.152667 20.34336 
L 146.155365 20.2952 
L 146.184439 21.186159 
L 146.258172 20.528596 
L 146.27226 20.884225 
L 146.30553 20.076093 
L 146.34929 20.284015 
L 146.370871 20.661639 
L 146.436212 21.381327 
L 146.401743 20.34175 
L 146.492261 21.064192 
L 146.551308 20.590663 
L 146.533924 21.591809 
L 146.608856 20.744692 
L 146.68169 21.74211 
L 146.650818 20.730095 
L 146.744634 21.124879 
L 146.755124 20.975726 
L 146.7821 21.570479 
L 146.853735 21.19255 
L 146.878613 21.573338 
L 146.898994 20.928623 
L 146.957442 21.067426 
L 147.033273 21.704103 
L 147.048559 20.912799 
L 147.057551 20.814274 
L 147.121993 21.63977 
L 147.152566 21.122666 
L 147.278752 21.643587 
L 147.250278 20.9723 
L 147.285046 21.513527 
L 147.349488 20.719815 
L 147.329406 21.646459 
L 147.412431 21.04175 
L 147.432214 21.656268 
L 147.504448 20.69019 
L 147.531124 21.407789 
L 147.536519 21.502093 
L 147.593768 20.421275 
L 147.603059 20.092355 
L 147.681589 21.086944 
L 147.730145 21.290604 
L 147.752924 20.580881 
L 147.788892 21.028522 
L 147.904887 20.063159 
L 147.92407 20.489856 
L 147.981318 21.126879 
L 148.042164 20.776613 
L 148.051455 20.559597 
L 148.133281 21.446611 
L 148.154862 20.6865 
L 148.197124 20.40242 
L 148.174344 20.858727 
L 148.221402 20.829003 
L 148.2238 21.546402 
L 148.252873 20.553831 
L 148.332602 20.897055 
L 148.339795 20.593014 
L 148.451295 18.826499 
L 148.466881 19.435209 
L 148.484265 20.252161 
L 148.554102 18.89505 
L 148.581677 19.656928 
L 148.582576 19.658846 
L 148.591568 19.281401 
L 148.701869 18.610267 
L 148.709961 18.796493 
L 148.732441 19.692989 
L 148.752223 18.630278 
L 148.828055 19.075847 
L 148.848436 18.916288 
L 148.863423 19.380238 
L 148.884104 20.129103 
L 148.946148 19.17007 
L 148.978519 19.556856 
L 148.986012 19.71321 
L 149.052552 18.851502 
L 149.082525 19.384816 
L 149.09991 18.677649 
L 149.171545 19.556677 
L 149.284243 19.826835 
L 149.249475 19.102084 
L 149.289938 19.728857 
L 149.304625 19.517483 
L 149.378059 20.311437 
L 149.38735 20.16825 
L 149.450593 19.239768 
L 149.523128 19.813208 
L 149.632829 20.36952 
L 149.59866 19.143503 
L 149.64272 20.013776 
L 149.699969 19.410471 
L 149.73114 20.983705 
L 149.735636 21.04422 
L 149.796482 20.016481 
L 149.804275 19.786521 
L 149.835147 20.691325 
L 149.90918 19.922986 
L 149.933158 20.199265 
L 149.999399 19.324635 
L 150.002096 19.346201 
L 150.080026 20.33865 
L 150.047655 19.103183 
L 150.137874 19.717253 
L 150.144168 19.471563 
L 150.235885 20.752368 
L 150.236485 20.748715 
L 150.293433 20.123817 
L 150.328802 21.013119 
L 150.335396 21.180926 
L 150.398339 20.274248 
L 150.503244 19.766058 
L 150.431309 20.318416 
L 150.521827 20.032897 
L 150.53052 20.103239 
L 150.548803 19.440514 
L 150.568885 19.460283 
L 150.600956 19.116213 
L 150.666297 19.726171 
L 150.682183 20.165004 
L 150.750521 18.927544 
L 150.753519 18.95163 
L 150.881503 20.324259 
L 150.89559 19.551977 
L 150.900386 19.40138 
L 150.935454 20.43574 
L 151.002594 19.784825 
L 151.080224 20.651562 
L 151.05115 19.697157 
L 151.13987 20.080567 
L 151.197718 19.694248 
L 151.221097 20.511276 
L 151.25077 20.085346 
L 151.282541 20.713496 
L 151.346983 19.749268 
L 151.349381 19.735786 
L 151.370362 20.673614 
L 151.382052 21.293161 
L 151.447693 19.931015 
L 151.478565 20.474241 
L 151.554097 19.635449 
L 151.620637 20.113159 
L 151.677585 20.538662 
L 151.65031 19.66261 
L 151.733335 20.165915 
L 151.846633 19.023005 
L 151.784589 20.20268 
L 151.861619 19.557896 
L 151.980312 20.400061 
L 151.898486 19.431937 
L 151.990203 20.173726 
L 151.999495 19.836229 
L 152.032465 20.571171 
L 152.104101 20.025123 
L 152.184128 20.828953 
L 152.151158 19.821468 
L 152.230587 20.490712 
L 152.24947 19.774785 
L 152.276745 20.816723 
L 152.325001 20.655889 
L 152.333394 21.030278 
L 152.354075 20.123373 
L 152.435302 20.621652 
L 152.547101 19.952497 
L 152.482959 20.726922 
L 152.557592 20.278062 
L 152.679582 20.900696 
L 152.649908 20.135818 
L 152.68138 20.87537 
L 152.752716 20.310963 
L 152.729037 20.998121 
L 152.800972 20.617047 
L 152.847131 20.404764 
L 152.822853 21.118363 
L 152.869311 20.982664 
L 152.934052 21.018379 
L 152.906777 20.5049 
L 152.956532 20.678119 
L 152.982009 21.01639 
L 152.996696 20.425655 
L 153.052445 19.877954 
L 153.082718 20.768601 
L 153.112391 20.244563 
L 153.230785 20.651614 
L 153.151356 19.839407 
L 153.234082 20.585552 
L 153.250267 19.874204 
L 153.326099 20.945235 
L 153.348578 20.420234 
L 153.350077 20.411519 
L 153.385145 21.183896 
L 153.407325 20.958886 
L 153.433102 21.466864 
L 153.499043 20.426714 
L 153.525719 21.191853 
L 153.526318 21.194129 
L 153.539806 20.607628 
L 153.649507 20.130066 
L 153.581468 20.768233 
L 153.6573 20.215716 
L 153.727137 20.619679 
L 153.699862 19.85386 
L 153.743622 20.023274 
L 153.749017 19.837777 
L 153.781088 20.788461 
L 153.854522 20.018244 
L 153.881498 20.801379 
L 153.955531 19.84475 
L 153.975014 20.256586 
L 153.980708 20.329572 
L 154.039156 19.552501 
L 154.048747 19.384706 
L 154.081418 20.448634 
L 154.127876 20.28132 
L 154.128775 20.28187 
L 154.136268 20.104379 
L 154.22349 19.189563 
L 154.218694 21.272027 
L 154.25616 19.559454 
L 154.380548 20.575725 
L 154.725837 23.277931 
L 154.399731 20.256435 
L 154.745918 23.080763 
L 154.750414 23.023247 
L 154.809461 23.924565 
L 154.920061 24.689707 
L 154.886791 23.420763 
L 154.934448 24.467668 
L 155.009081 23.984021 
L 154.971315 24.779405 
L 155.059136 24.257252 
L 155.128074 25.137658 
L 155.191317 24.779433 
L 155.203006 24.568535 
L 155.225486 25.617436 
L 155.275841 25.378927 
L 155.294424 24.738143 
L 155.301917 24.397288 
L 155.373552 25.512638 
L 155.407122 24.612983 
L 155.455678 24.364791 
L 155.425705 25.240506 
L 155.473063 24.978439 
L 155.47606 25.029025 
L 155.552491 23.988404 
L 155.553091 23.991637 
L 155.672383 24.75455 
L 155.604045 23.587971 
L 155.690966 24.277473 
L 155.755408 23.441995 
L 155.725735 24.350872 
L 155.805763 24.162884 
L 155.825845 24.736452 
L 155.895682 23.425432 
L 155.900477 23.289455 
L 155.981105 24.356267 
L 155.991295 24.190759 
L 156.058735 23.433611 
L 156.024565 24.207798 
L 156.10819 24.131106 
L 156.125275 24.695755 
L 156.196011 23.769896 
L 156.309009 23.306313 
L 156.277537 24.125235 
L 156.315003 23.516037 
L 156.370154 24.264738 
L 156.433097 23.954872 
L 156.499937 23.515705 
L 156.47416 24.133105 
L 156.547294 23.860003 
L 156.570373 24.692672 
L 156.604542 23.658578 
L 156.6519 23.790768 
L 156.653398 23.785665 
L 156.67348 24.263449 
L 156.710047 24.173918 
L 156.722636 24.53839 
L 156.755906 23.437348 
L 156.818849 24.094543 
L 156.826043 24.199868 
L 156.853918 23.58832 
L 156.891683 23.685495 
L 156.90637 23.078767 
L 156.975908 24.058564 
L 157.00618 23.568068 
L 157.022066 24.275602 
L 157.129969 24.089392 
L 157.215691 21.498087 
L 157.219588 24.731444 
L 157.220787 24.881004 
L 157.321496 22.630281 
L 157.499835 18.144121 
L 157.503732 18.154609 
L 157.532206 18.402037 
L 157.584958 18.028458 
L 157.699155 17.728912 
L 157.624223 18.552922 
L 157.706049 17.776534 
L 157.921255 19.529792 
L 157.930846 19.404479 
L 157.944334 18.813937 
L 157.984198 20.389926 
L 158.045043 19.269331 
L 158.096897 19.206131 
L 158.078014 20.050777 
L 158.131665 19.580922 
L 158.23687 19.914805 
L 158.199104 19.086352 
L 158.253056 19.745341 
L 158.280631 19.828627 
L 158.299814 19.590497 
L 158.308506 19.604798 
L 158.310904 19.596936 
L 158.328588 19.96317 
L 158.362457 19.918812 
L 158.369051 20.050543 
L 158.450578 19.234662 
L 158.45927 19.35181 
L 158.477254 19.797601 
L 158.537799 19.056265 
L 158.546491 18.792935 
L 158.626819 19.666995 
L 158.651696 18.954791 
L 158.76949 19.6253 
L 158.784177 19.38587 
L 158.796766 19.13599 
L 158.870799 20.181043 
L 158.978402 20.803186 
L 158.893878 19.571003 
L 158.988293 20.425072 
L 159.048239 19.597675 
L 159.021263 20.58516 
L 159.115079 19.805704 
L 159.181319 20.699684 
L 159.152545 19.625078 
L 159.236169 20.111219 
L 159.300911 19.655142 
L 159.33568 20.4226 
L 159.343473 20.287743 
L 159.344971 20.281433 
L 159.380639 20.877722 
L 159.384536 20.912646 
L 159.441484 20.239357 
L 159.54639 19.648926 
L 159.482847 20.396078 
L 159.558978 19.985969 
L 159.682767 20.764449 
L 159.648597 19.706556 
L 159.685164 20.730879 
L 159.808054 19.622914 
L 159.719034 20.762131 
L 159.826337 19.900399 
L 159.924648 20.353026 
L 159.898572 19.228822 
L 159.938436 19.928609 
L 159.997783 19.500871 
L 160.031053 20.585374 
L 160.050835 19.838056 
L 160.181517 20.735616 
L 160.098192 19.512135 
L 160.192007 20.186706 
L 160.208193 19.288347 
L 160.212389 21.390119 
L 160.212988 21.956722 
L 160.239365 19.233286 
L 160.32179 19.999395 
L 160.375442 20.53795 
L 160.396723 19.906163 
L 160.435088 20.07471 
L 160.447077 19.698926 
L 160.482146 20.733897 
L 160.545988 20.082408 
L 160.548086 20.086069 
L 160.55498 20.191226 
L 160.574163 20.9384 
L 160.602337 20.140689 
L 160.676071 20.541835 
L 160.79896 20.069544 
L 160.775281 20.837215 
L 160.800159 20.074477 
L 160.92125 20.962087 
L 160.898171 19.995824 
L 160.945828 20.384816 
L 161.055828 20.065043 
L 160.978498 20.806282 
L 161.068417 20.172598 
L 161.074412 20.320785 
L 161.147246 19.452578 
L 161.167927 19.770802 
L 161.196701 19.431247 
L 161.224576 19.988047 
L 161.268037 19.951774 
L 161.324986 20.915129 
L 161.295312 19.828845 
L 161.390627 20.274087 
L 161.396022 20.086508 
L 161.477248 20.799454 
L 161.500927 20.32267 
L 161.671473 21.27778 
L 161.684961 20.700124 
L 161.794962 20.119063 
L 161.725125 21.063851 
L 161.802155 20.29376 
L 161.844118 19.929072 
L 161.93044 20.765396 
L 161.931339 20.770474 
L 161.949922 20.099735 
L 161.981394 20.197627 
L 162.097689 20.014363 
L 162.023955 20.577088 
L 162.099787 20.040087 
L 162.17412 20.760433 
L 162.147144 20.017086 
L 162.227172 20.462275 
L 162.243058 20.005526 
L 162.271232 21.316896 
L 162.320688 20.726056 
L 162.323685 20.745487 
L 162.383331 20.164118 
L 162.39562 19.764801 
L 162.468754 20.805777 
L 162.492433 20.281983 
L 162.592842 19.769169 
L 162.572161 20.497074 
L 162.60663 20.141959 
L 162.625213 20.663704 
L 162.697748 19.643032 
L 162.701644 19.673283 
L 162.776876 20.384651 
L 162.830228 19.896504 
L 162.845215 19.428608 
L 162.87279 20.248825 
L 162.932736 20.161065 
L 162.945624 20.002901 
L 162.967505 20.612762 
L 163.026252 20.939523 
L 162.996279 20.098668 
L 163.080802 20.659112 
L 163.117369 20.86915 
L 163.210286 19.634233 
L 163.321485 21.099522 
L 163.424592 21.52488 
L 163.346363 20.64772 
L 163.435383 21.125504 
L 163.444375 21.006586 
L 163.512413 22.132487 
L 163.676066 23.15012 
L 163.581351 21.692977 
L 163.679363 23.110974 
L 163.742306 22.744833 
L 163.768382 23.474531 
L 163.786966 23.183272 
L 163.794459 23.153785 
L 163.81514 23.618527 
L 163.820835 23.687315 
L 163.843615 23.106828 
L 163.922743 23.546362 
L 163.931435 23.415965 
L 164.009665 23.869925 
L 164.020755 24.159046 
L 164.045632 23.387836 
L 164.090892 23.423101 
L 164.145442 22.737721 
L 164.172118 23.617016 
L 164.20359 23.34406 
L 164.270729 24.259717 
L 164.246751 23.299436 
L 164.327978 23.987945 
L 164.384327 22.913155 
L 164.452665 23.593729 
L 164.566263 23.887927 
L 164.497325 23.346632 
L 164.571358 23.728429 
L 164.594737 22.578215 
L 164.693648 23.058503 
L 164.749698 22.752584 
L 164.771578 23.463219 
L 164.79106 23.342052 
L 164.803349 23.534837 
L 164.847709 22.998867 
L 164.878581 22.998993 
L 164.998773 22.752824 
L 164.960707 23.188403 
L 164.999073 22.752904 
L 165.008065 22.890901 
L 165.021253 23.265964 
L 165.045231 22.743028 
L 165.12406 23.024839 
L 165.198093 22.309912 
L 165.160027 23.110676 
L 165.24635 22.829612 
L 165.261036 22.91931 
L 165.288312 22.71478 
L 165.296704 22.653032 
L 165.313189 23.018032 
L 165.353053 23.131757 
L 165.371637 22.853876 
L 165.421092 22.928715 
L 165.433381 22.462398 
L 165.51251 23.220405 
L 165.517605 23.160435 
L 165.583845 22.856505 
L 165.548177 23.325102 
L 165.614717 23.238595 
L 165.615617 23.2416 
L 165.631203 22.708147 
L 165.734909 22.301394 
L 165.707034 23.211616 
L 165.751094 22.464461 
L 165.86679 22.98561 
L 165.797553 22.374914 
L 165.873984 22.821357 
L 165.893766 22.196987 
L 165.921341 23.331973 
L 165.983385 22.888638 
L 166.083495 22.692202 
L 166.059217 23.010413 
L 166.099081 22.776358 
L 166.161724 22.898308 
L 166.178509 22.217895 
L 166.207883 21.066573 
L 166.252842 22.706743 
L 166.254341 22.727421 
L 166.329573 21.765512 
L 166.44317 18.993793 
L 166.492626 19.087473 
L 166.5214 19.88141 
L 166.591836 18.844718 
L 166.693145 18.208104 
L 166.619112 19.088413 
L 166.70993 18.614842 
L 166.717423 18.648638 
L 166.739903 18.330037 
L 166.744099 18.249561 
L 166.77617 19.280983 
L 166.825026 19.156332 
L 166.970395 20.134523 
L 166.893664 18.790646 
L 166.97549 20.010533 
L 167.039333 19.171408 
L 167.099279 19.62459 
L 167.120859 19.895276 
L 167.185601 19.142299 
L 167.193094 19.0221 
L 167.269825 20.100553 
L 167.277318 19.874158 
L 167.298 19.509947 
L 167.325575 20.097426 
L 167.373232 20.259644 
L 167.344458 19.605928 
L 167.391216 19.691895 
L 167.442769 19.259318 
L 167.472742 20.053133 
L 167.498519 19.893373 
L 167.570754 20.374208 
L 167.595631 19.47468 
L 167.596231 19.475872 
L 167.613915 20.275154 
L 167.622007 20.61274 
L 167.645386 19.648683 
L 167.725114 20.295345 
L 167.742798 19.847507 
L 167.772172 20.792459 
L 167.815033 20.735955 
L 167.825224 21.04832 
L 167.898058 20.074087 
L 167.925334 20.692814 
L 167.926233 20.693944 
L 167.934925 20.460881 
L 168.041329 19.746412 
L 167.975688 20.704962 
L 168.054817 20.002571 
L 168.066207 20.093664 
L 168.079395 19.693465 
L 168.095281 19.25975 
L 168.168714 20.270119 
L 168.189995 19.720527 
L 168.245145 19.617675 
L 168.268225 20.416212 
L 168.276317 20.656026 
L 168.342558 19.549026 
L 168.367435 19.987458 
L 168.393811 19.23601 
L 168.465447 20.24729 
L 168.521496 20.867296 
L 168.492423 19.870019 
L 168.580243 20.285424 
L 168.590734 19.829352 
L 168.61711 20.877724 
L 168.697438 19.977743 
L 168.771771 20.617353 
L 168.821526 20.276973 
L 168.890763 19.72814 
L 168.956704 19.852949 
L 168.974688 20.015019 
L 168.988175 19.617726 
L 168.991472 19.550434 
L 169.067004 20.462198 
L 169.092182 19.883063 
L 169.102372 19.810727 
L 169.112563 20.210207 
L 169.20518 21.241706 
L 169.200084 19.524421 
L 169.225861 20.369766 
L 169.240548 19.971657 
L 169.318478 21.039295 
L 169.324172 20.989319 
L 169.342756 20.728829 
L 169.368233 21.682561 
L 169.41529 21.424336 
L 169.666764 23.355984 
L 169.439568 21.27187 
L 169.691042 23.144755 
L 169.70363 23.064267 
L 169.748889 23.531983 
L 169.821124 24.395833 
L 169.853795 23.391378 
L 169.856792 23.421548 
L 169.971888 25.219545 
L 170.027039 24.778903 
L 170.031834 24.780879 
L 170.035731 24.675562 
L 170.042625 24.456525 
L 170.119655 25.540263 
L 170.137939 25.050825 
L 170.241046 24.725579 
L 170.202381 25.356249 
L 170.253035 24.996674 
L 170.315379 25.404535 
L 170.343853 24.812835 
L 170.370229 25.143387 
L 170.441865 24.158155 
L 170.500911 24.514687 
L 170.516198 24.888839 
L 170.556062 24.256262 
L 170.589931 24.357113 
L 170.693038 23.49722 
L 170.668161 24.584993 
L 170.707725 23.917627 
L 170.769769 24.546212 
L 170.741894 23.833134 
L 170.828516 24.33927 
L 170.89086 23.219092 
L 170.959498 23.925827 
L 171.014648 24.11225 
L 171.040125 23.342378 
L 171.053013 23.102884 
L 171.115357 24.317607 
L 171.147129 23.546988 
L 171.168709 24.080314 
L 171.202579 23.514109 
L 171.270917 23.756791 
L 171.390809 23.359186 
L 171.316476 24.11776 
L 171.391109 23.35974 
L 171.415087 24.057514 
L 171.509502 23.406688 
L 171.510101 23.405839 
L 171.518793 23.646111 
L 171.549965 23.639617 
L 171.56735 24.276771 
L 171.641982 23.003901 
L 171.648876 22.845647 
L 171.715716 24.080256 
L 171.74419 23.317682 
L 171.817025 24.161675 
L 171.871875 23.704153 
L 171.966889 23.847381 
L 171.991767 23.284001 
L 172.102367 22.799084 
L 172.008552 23.550211 
L 172.144329 23.044539 
L 172.166809 23.442694 
L 172.202177 21.427592 
L 172.202177 21.427592 
" clip-path="url(#pbe157a50b3)" style="fill: none; stroke: #000000; stroke-width: 0.5; stroke-linecap: square"/>
   </g>
   <g id="line2d_4">
    <path d="M 124.245722 27.285083 
L 130.240316 27.285083 
" clip-path="url(#pbe157a50b3)" style="fill: none; stroke: #000000; stroke-width: 0.5; stroke-linecap: square"/>
   </g>
   <g id="text_3">
    <text style="font-size: 5px; font-family: 'Arial', sans-serif, serif; text-anchor: middle" x="127.392884" y="31.697813" transform="rotate(-0 127.392884 31.697813)">2 s</text>
   </g>
   <g id="text_4">
    <text style="font-size: 5px; font-family: 'Arial', sans-serif, serif; text-anchor: middle" x="148.22395" y="10.778906" transform="rotate(-0 148.22395 10.778906)">Photocurrent</text>
   </g>
  </g>
  <g id="axes_4"/>
  <g id="axes_5"/>
  <g id="axes_6"/>
  <g id="axes_7">
   <g id="line2d_5">
    <path d="M 9.597823 64.506965 
L 9.717774 56.16873 
L 21.568944 56.16873 
L 21.688895 64.506965 
L 32.364544 64.506965 
L 32.364544 64.506965 
" clip-path="url(#p70f13e28c8)" style="fill: none; stroke: #32cd32; stroke-width: 0.5; stroke-linecap: square"/>
   </g>
   <g id="line2d_6">
    <path d="M 33.588046 64.506965 
L 33.707997 56.16873 
L 45.559167 56.16873 
L 45.679118 64.506965 
L 57.554278 64.506965 
L 57.554278 64.506965 
" clip-path="url(#p70f13e28c8)" style="fill: none; stroke: #ff00ff; stroke-width: 0.5; stroke-linecap: square"/>
   </g>
   <g id="line2d_7">
    <path d="M 9.597823 66.174612 
L 21.592934 66.174612 
" clip-path="url(#p70f13e28c8)" style="fill: none; stroke: #000000; stroke-width: 0.5; stroke-linecap: square"/>
   </g>
   <g id="text_5">
    <text style="font-size: 5px; font-family: 'Arial', sans-serif, serif; text-anchor: middle" x="15.595378" y="70.587342" transform="rotate(-0 15.595378 70.587342)">1 s</text>
   </g>
  </g>
  <g id="axes_8"/>
  <g id="axes_9">
   <g id="line2d_8">
    <path d="M 124.245722 58.049854 
L 124.917448 59.247536 
L 127.196519 63.844214 
L 127.652334 64.230467 
L 128.34805 64.498852 
L 129.139727 64.442177 
L 130.819043 64.087521 
L 134.273635 63.849289 
L 135.401176 63.519438 
L 135.833 63.207215 
L 136.696648 62.312026 
L 137.536305 60.993064 
L 139.575474 57.322228 
L 140.295181 56.53583 
L 140.774985 56.290904 
L 141.518682 56.171012 
L 142.238389 56.31444 
L 143.653812 56.679129 
L 145.429089 56.568295 
L 147.324316 56.271694 
L 148.115994 56.331705 
L 148.211954 56.343897 
L 148.211954 56.343897 
" clip-path="url(#p195fa86e67)" style="fill: none; stroke: #000000; stroke-width: 0.5; stroke-linecap: square"/>
   </g>
   <g id="line2d_9">
    <path d="M 148.259935 58.707783 
L 148.691759 58.891954 
L 149.147573 59.047416 
L 149.747329 59.582682 
L 150.299104 60.557852 
L 151.378664 62.087055 
L 152.866058 62.997626 
L 153.249901 62.86417 
L 154.425422 62.236515 
L 156.104738 62.522191 
L 156.536562 62.839248 
L 158.407799 64.019434 
L 159.511349 64.457388 
L 159.895193 64.493533 
L 160.255046 64.302532 
L 160.950763 63.465275 
L 161.598499 62.354014 
L 162.390176 60.343922 
L 162.965941 59.098564 
L 163.421756 58.564472 
L 164.237423 58.125749 
L 165.340974 57.762268 
L 165.700827 57.675623 
L 165.940729 57.501182 
L 167.500094 56.183286 
L 168.19581 56.24601 
L 168.867536 56.871136 
L 170.234979 58.272054 
L 170.594832 58.315449 
L 171.218578 58.141555 
L 171.530451 57.755959 
L 172.202177 56.511946 
L 172.202177 56.511946 
" clip-path="url(#p195fa86e67)" style="fill: none; stroke: #000000; stroke-width: 0.5; stroke-linecap: square"/>
   </g>
   <g id="line2d_10">
    <path d="M 124.245722 66.174612 
L 136.240833 66.174612 
" clip-path="url(#p195fa86e67)" style="fill: none; stroke: #000000; stroke-width: 0.5; stroke-linecap: square"/>
   </g>
   <g id="text_6">
    <text style="font-size: 5px; font-family: 'Arial', sans-serif, serif; text-anchor: middle" x="130.243278" y="70.587342" transform="rotate(-0 130.243278 70.587342)">1 s</text>
   </g>
   <g id="text_7">
    <text style="font-size: 5px; font-family: 'Arial', sans-serif, serif; text-anchor: middle" x="148.22395" y="49.668436" transform="rotate(-0 148.22395 49.668436)">Glutamate release</text>
   </g>
  </g>
 </g>
 <defs>
  <clipPath id="p8640934f98">
   <rect x="7.2" y="16.778906" width="52.752101" height="11.006471"/>
  </clipPath>
  <clipPath id="pbe157a50b3">
   <rect x="121.847899" y="16.778906" width="52.752101" height="11.006471"/>
  </clipPath>
  <clipPath id="p70f13e28c8">
   <rect x="7.2" y="55.668436" width="52.752101" height="11.006471"/>
  </clipPath>
  <clipPath id="p195fa86e67">
   <rect x="121.847899" y="55.668436" width="52.752101" height="11.006471"/>
  </clipPath>
 </defs>
</svg>
